<mxfile host="app.diagrams.net" modified="2021-12-30T05:53:33.534Z" agent="5.0 (X11; Linux x86_64) AppleWebKit/537.36 (KHTML, like Gecko) Chrome/96.0.4664.110 Safari/537.36" etag="ypXXoehWC4QJ0rJMP-ug" version="16.1.0" type="github">
  <diagram id="9IjnkIQaSo-JIOb3UU6c" name="Page-1">
    <mxGraphModel dx="1084" dy="1793" grid="1" gridSize="10" guides="1" tooltips="1" connect="1" arrows="1" fold="1" page="1" pageScale="1" pageWidth="1169" pageHeight="827" math="0" shadow="0">
      <root>
        <mxCell id="0" />
        <mxCell id="1" parent="0" />
        <mxCell id="MwSIgb_RVXlyAXQ-AR61-1" value="Peer 1" style="rounded=0;whiteSpace=wrap;html=1;fillColor=#FFFF99;" vertex="1" parent="1">
          <mxGeometry x="2440" y="120" width="120" height="40" as="geometry" />
        </mxCell>
        <mxCell id="MwSIgb_RVXlyAXQ-AR61-2" value="Peer 2" style="rounded=0;whiteSpace=wrap;html=1;fillColor=#FFFF99;" vertex="1" parent="1">
          <mxGeometry x="2680" y="120" width="120" height="40" as="geometry" />
        </mxCell>
        <mxCell id="MwSIgb_RVXlyAXQ-AR61-3" value="Peer 3" style="rounded=0;whiteSpace=wrap;html=1;fillColor=#FFFF99;" vertex="1" parent="1">
          <mxGeometry x="2920" y="120" width="120" height="40" as="geometry" />
        </mxCell>
        <mxCell id="MwSIgb_RVXlyAXQ-AR61-4" value="Peer 4" style="rounded=0;whiteSpace=wrap;html=1;fillColor=#FFFF99;" vertex="1" parent="1">
          <mxGeometry x="3160" y="120" width="120" height="40" as="geometry" />
        </mxCell>
        <mxCell id="MwSIgb_RVXlyAXQ-AR61-5" value="Peer 5" style="rounded=0;whiteSpace=wrap;html=1;fillColor=#FFFF99;" vertex="1" parent="1">
          <mxGeometry x="3400" y="120" width="120" height="40" as="geometry" />
        </mxCell>
        <mxCell id="MwSIgb_RVXlyAXQ-AR61-6" value="State" style="rounded=0;whiteSpace=wrap;html=1;fillColor=#66B2FF;" vertex="1" parent="1">
          <mxGeometry x="2440" y="160" width="60" height="40" as="geometry" />
        </mxCell>
        <mxCell id="MwSIgb_RVXlyAXQ-AR61-7" value="Term" style="rounded=0;whiteSpace=wrap;html=1;fillColor=#66B2FF;" vertex="1" parent="1">
          <mxGeometry x="2440" y="200" width="60" height="40" as="geometry" />
        </mxCell>
        <mxCell id="MwSIgb_RVXlyAXQ-AR61-8" value="Leader" style="rounded=0;whiteSpace=wrap;html=1;fillColor=#66B2FF;" vertex="1" parent="1">
          <mxGeometry x="2440" y="240" width="60" height="40" as="geometry" />
        </mxCell>
        <mxCell id="MwSIgb_RVXlyAXQ-AR61-9" value="1" style="rounded=0;whiteSpace=wrap;html=1;fillColor=#97D077;" vertex="1" parent="1">
          <mxGeometry x="2500" y="160" width="60" height="40" as="geometry" />
        </mxCell>
        <mxCell id="MwSIgb_RVXlyAXQ-AR61-10" value="RaftLog" style="rounded=0;whiteSpace=wrap;html=1;fillColor=#66FFFF;" vertex="1" parent="1">
          <mxGeometry x="2440" y="280" width="120" height="40" as="geometry" />
        </mxCell>
        <mxCell id="MwSIgb_RVXlyAXQ-AR61-11" value="11" style="rounded=0;whiteSpace=wrap;html=1;fillColor=#97D077;" vertex="1" parent="1">
          <mxGeometry x="2500" y="200" width="60" height="40" as="geometry" />
        </mxCell>
        <mxCell id="MwSIgb_RVXlyAXQ-AR61-12" value="0" style="rounded=0;whiteSpace=wrap;html=1;fillColor=#97D077;" vertex="1" parent="1">
          <mxGeometry x="2500" y="240" width="60" height="40" as="geometry" />
        </mxCell>
        <mxCell id="MwSIgb_RVXlyAXQ-AR61-13" value="State" style="rounded=0;whiteSpace=wrap;html=1;fillColor=#66B2FF;" vertex="1" parent="1">
          <mxGeometry x="2680" y="160" width="60" height="40" as="geometry" />
        </mxCell>
        <mxCell id="MwSIgb_RVXlyAXQ-AR61-14" value="Term" style="rounded=0;whiteSpace=wrap;html=1;fillColor=#66B2FF;" vertex="1" parent="1">
          <mxGeometry x="2680" y="200" width="60" height="40" as="geometry" />
        </mxCell>
        <mxCell id="MwSIgb_RVXlyAXQ-AR61-15" value="Leader" style="rounded=0;whiteSpace=wrap;html=1;fillColor=#66B2FF;" vertex="1" parent="1">
          <mxGeometry x="2680" y="240" width="60" height="40" as="geometry" />
        </mxCell>
        <mxCell id="MwSIgb_RVXlyAXQ-AR61-16" value="1" style="rounded=0;whiteSpace=wrap;html=1;fillColor=#97D077;" vertex="1" parent="1">
          <mxGeometry x="2740" y="160" width="60" height="40" as="geometry" />
        </mxCell>
        <mxCell id="MwSIgb_RVXlyAXQ-AR61-17" value="RaftLog" style="rounded=0;whiteSpace=wrap;html=1;fillColor=#66FFFF;" vertex="1" parent="1">
          <mxGeometry x="2680" y="280" width="120" height="40" as="geometry" />
        </mxCell>
        <mxCell id="MwSIgb_RVXlyAXQ-AR61-18" value="11" style="rounded=0;whiteSpace=wrap;html=1;fillColor=#97D077;" vertex="1" parent="1">
          <mxGeometry x="2740" y="200" width="60" height="40" as="geometry" />
        </mxCell>
        <mxCell id="MwSIgb_RVXlyAXQ-AR61-19" value="0" style="rounded=0;whiteSpace=wrap;html=1;fillColor=#97D077;" vertex="1" parent="1">
          <mxGeometry x="2740" y="240" width="60" height="40" as="geometry" />
        </mxCell>
        <mxCell id="MwSIgb_RVXlyAXQ-AR61-20" value="State" style="rounded=0;whiteSpace=wrap;html=1;fillColor=#66B2FF;" vertex="1" parent="1">
          <mxGeometry x="2920" y="160" width="60" height="40" as="geometry" />
        </mxCell>
        <mxCell id="MwSIgb_RVXlyAXQ-AR61-21" value="Term" style="rounded=0;whiteSpace=wrap;html=1;fillColor=#66B2FF;" vertex="1" parent="1">
          <mxGeometry x="2920" y="200" width="60" height="40" as="geometry" />
        </mxCell>
        <mxCell id="MwSIgb_RVXlyAXQ-AR61-22" value="Leader" style="rounded=0;whiteSpace=wrap;html=1;fillColor=#66B2FF;" vertex="1" parent="1">
          <mxGeometry x="2920" y="240" width="60" height="40" as="geometry" />
        </mxCell>
        <mxCell id="MwSIgb_RVXlyAXQ-AR61-23" value="3" style="rounded=0;whiteSpace=wrap;html=1;fillColor=#97D077;" vertex="1" parent="1">
          <mxGeometry x="2980" y="160" width="60" height="40" as="geometry" />
        </mxCell>
        <mxCell id="MwSIgb_RVXlyAXQ-AR61-24" value="RaftLog" style="rounded=0;whiteSpace=wrap;html=1;fillColor=#66FFFF;" vertex="1" parent="1">
          <mxGeometry x="2920" y="280" width="120" height="40" as="geometry" />
        </mxCell>
        <mxCell id="MwSIgb_RVXlyAXQ-AR61-25" value="11" style="rounded=0;whiteSpace=wrap;html=1;fillColor=#97D077;" vertex="1" parent="1">
          <mxGeometry x="2980" y="200" width="60" height="40" as="geometry" />
        </mxCell>
        <mxCell id="MwSIgb_RVXlyAXQ-AR61-26" value="0" style="rounded=0;whiteSpace=wrap;html=1;fillColor=#97D077;" vertex="1" parent="1">
          <mxGeometry x="2980" y="240" width="60" height="40" as="geometry" />
        </mxCell>
        <mxCell id="MwSIgb_RVXlyAXQ-AR61-27" value="State" style="rounded=0;whiteSpace=wrap;html=1;fillColor=#66B2FF;" vertex="1" parent="1">
          <mxGeometry x="3160" y="160" width="60" height="40" as="geometry" />
        </mxCell>
        <mxCell id="MwSIgb_RVXlyAXQ-AR61-28" value="Term" style="rounded=0;whiteSpace=wrap;html=1;fillColor=#66B2FF;" vertex="1" parent="1">
          <mxGeometry x="3160" y="200" width="60" height="40" as="geometry" />
        </mxCell>
        <mxCell id="MwSIgb_RVXlyAXQ-AR61-29" value="Leader" style="rounded=0;whiteSpace=wrap;html=1;fillColor=#66B2FF;" vertex="1" parent="1">
          <mxGeometry x="3160" y="240" width="60" height="40" as="geometry" />
        </mxCell>
        <mxCell id="MwSIgb_RVXlyAXQ-AR61-30" value="3" style="rounded=0;whiteSpace=wrap;html=1;fillColor=#97D077;" vertex="1" parent="1">
          <mxGeometry x="3220" y="160" width="60" height="40" as="geometry" />
        </mxCell>
        <mxCell id="MwSIgb_RVXlyAXQ-AR61-31" value="RaftLog" style="rounded=0;whiteSpace=wrap;html=1;fillColor=#66FFFF;" vertex="1" parent="1">
          <mxGeometry x="3160" y="280" width="120" height="40" as="geometry" />
        </mxCell>
        <mxCell id="MwSIgb_RVXlyAXQ-AR61-32" value="11" style="rounded=0;whiteSpace=wrap;html=1;fillColor=#97D077;" vertex="1" parent="1">
          <mxGeometry x="3220" y="200" width="60" height="40" as="geometry" />
        </mxCell>
        <mxCell id="MwSIgb_RVXlyAXQ-AR61-33" value="0" style="rounded=0;whiteSpace=wrap;html=1;fillColor=#97D077;" vertex="1" parent="1">
          <mxGeometry x="3220" y="240" width="60" height="40" as="geometry" />
        </mxCell>
        <mxCell id="MwSIgb_RVXlyAXQ-AR61-34" value="State" style="rounded=0;whiteSpace=wrap;html=1;fillColor=#66B2FF;" vertex="1" parent="1">
          <mxGeometry x="3400" y="160" width="60" height="40" as="geometry" />
        </mxCell>
        <mxCell id="MwSIgb_RVXlyAXQ-AR61-35" value="Term" style="rounded=0;whiteSpace=wrap;html=1;fillColor=#66B2FF;" vertex="1" parent="1">
          <mxGeometry x="3400" y="200" width="60" height="40" as="geometry" />
        </mxCell>
        <mxCell id="MwSIgb_RVXlyAXQ-AR61-36" value="Leader" style="rounded=0;whiteSpace=wrap;html=1;fillColor=#66B2FF;" vertex="1" parent="1">
          <mxGeometry x="3400" y="240" width="60" height="40" as="geometry" />
        </mxCell>
        <mxCell id="MwSIgb_RVXlyAXQ-AR61-37" value="1" style="rounded=0;whiteSpace=wrap;html=1;fillColor=#97D077;" vertex="1" parent="1">
          <mxGeometry x="3460" y="160" width="60" height="40" as="geometry" />
        </mxCell>
        <mxCell id="MwSIgb_RVXlyAXQ-AR61-38" value="RaftLog" style="rounded=0;whiteSpace=wrap;html=1;fillColor=#66FFFF;" vertex="1" parent="1">
          <mxGeometry x="3400" y="280" width="120" height="40" as="geometry" />
        </mxCell>
        <mxCell id="MwSIgb_RVXlyAXQ-AR61-39" value="11" style="rounded=0;whiteSpace=wrap;html=1;fillColor=#97D077;" vertex="1" parent="1">
          <mxGeometry x="3460" y="200" width="60" height="40" as="geometry" />
        </mxCell>
        <mxCell id="MwSIgb_RVXlyAXQ-AR61-40" value="0" style="rounded=0;whiteSpace=wrap;html=1;fillColor=#97D077;" vertex="1" parent="1">
          <mxGeometry x="3460" y="240" width="60" height="40" as="geometry" />
        </mxCell>
        <mxCell id="MwSIgb_RVXlyAXQ-AR61-41" value="Commit" style="rounded=0;whiteSpace=wrap;html=1;fillColor=#66B2FF;" vertex="1" parent="1">
          <mxGeometry x="2440" y="320" width="60" height="40" as="geometry" />
        </mxCell>
        <mxCell id="MwSIgb_RVXlyAXQ-AR61-42" value="Apply" style="rounded=0;whiteSpace=wrap;html=1;fillColor=#66B2FF;" vertex="1" parent="1">
          <mxGeometry x="2440" y="360" width="60" height="40" as="geometry" />
        </mxCell>
        <mxCell id="MwSIgb_RVXlyAXQ-AR61-43" value="Stable" style="rounded=0;whiteSpace=wrap;html=1;fillColor=#66B2FF;" vertex="1" parent="1">
          <mxGeometry x="2440" y="400" width="60" height="40" as="geometry" />
        </mxCell>
        <mxCell id="MwSIgb_RVXlyAXQ-AR61-44" value="8" style="rounded=0;whiteSpace=wrap;html=1;fillColor=#00CCCC;" vertex="1" parent="1">
          <mxGeometry x="2500" y="320" width="60" height="40" as="geometry" />
        </mxCell>
        <mxCell id="MwSIgb_RVXlyAXQ-AR61-45" value="5" style="rounded=0;whiteSpace=wrap;html=1;fillColor=#CC0000;" vertex="1" parent="1">
          <mxGeometry x="2500" y="360" width="60" height="40" as="geometry" />
        </mxCell>
        <mxCell id="MwSIgb_RVXlyAXQ-AR61-46" value="8" style="rounded=0;whiteSpace=wrap;html=1;fillColor=#B3B3B3;" vertex="1" parent="1">
          <mxGeometry x="2500" y="400" width="60" height="40" as="geometry" />
        </mxCell>
        <mxCell id="MwSIgb_RVXlyAXQ-AR61-47" value="FirstIdx" style="rounded=0;whiteSpace=wrap;html=1;fillColor=#66B2FF;" vertex="1" parent="1">
          <mxGeometry x="2440" y="440" width="60" height="40" as="geometry" />
        </mxCell>
        <mxCell id="MwSIgb_RVXlyAXQ-AR61-48" value="6" style="rounded=0;whiteSpace=wrap;html=1;fillColor=#97D077;" vertex="1" parent="1">
          <mxGeometry x="2500" y="440" width="60" height="40" as="geometry" />
        </mxCell>
        <mxCell id="MwSIgb_RVXlyAXQ-AR61-51" value="Commit" style="rounded=0;whiteSpace=wrap;html=1;fillColor=#66B2FF;" vertex="1" parent="1">
          <mxGeometry x="2680" y="320" width="60" height="40" as="geometry" />
        </mxCell>
        <mxCell id="MwSIgb_RVXlyAXQ-AR61-52" value="Apply" style="rounded=0;whiteSpace=wrap;html=1;fillColor=#66B2FF;" vertex="1" parent="1">
          <mxGeometry x="2680" y="360" width="60" height="40" as="geometry" />
        </mxCell>
        <mxCell id="MwSIgb_RVXlyAXQ-AR61-53" value="Stable" style="rounded=0;whiteSpace=wrap;html=1;fillColor=#66B2FF;" vertex="1" parent="1">
          <mxGeometry x="2680" y="400" width="60" height="40" as="geometry" />
        </mxCell>
        <mxCell id="MwSIgb_RVXlyAXQ-AR61-57" value="FirstIdx" style="rounded=0;whiteSpace=wrap;html=1;fillColor=#66B2FF;" vertex="1" parent="1">
          <mxGeometry x="2680" y="440" width="60" height="40" as="geometry" />
        </mxCell>
        <mxCell id="MwSIgb_RVXlyAXQ-AR61-59" value="Commit" style="rounded=0;whiteSpace=wrap;html=1;fillColor=#66B2FF;" vertex="1" parent="1">
          <mxGeometry x="2920" y="320" width="60" height="40" as="geometry" />
        </mxCell>
        <mxCell id="MwSIgb_RVXlyAXQ-AR61-60" value="Apply" style="rounded=0;whiteSpace=wrap;html=1;fillColor=#66B2FF;" vertex="1" parent="1">
          <mxGeometry x="2920" y="360" width="60" height="40" as="geometry" />
        </mxCell>
        <mxCell id="MwSIgb_RVXlyAXQ-AR61-61" value="Stable" style="rounded=0;whiteSpace=wrap;html=1;fillColor=#66B2FF;" vertex="1" parent="1">
          <mxGeometry x="2920" y="400" width="60" height="40" as="geometry" />
        </mxCell>
        <mxCell id="MwSIgb_RVXlyAXQ-AR61-65" value="FirstIdx" style="rounded=0;whiteSpace=wrap;html=1;fillColor=#66B2FF;" vertex="1" parent="1">
          <mxGeometry x="2920" y="440" width="60" height="40" as="geometry" />
        </mxCell>
        <mxCell id="MwSIgb_RVXlyAXQ-AR61-67" value="Commit" style="rounded=0;whiteSpace=wrap;html=1;fillColor=#66B2FF;" vertex="1" parent="1">
          <mxGeometry x="3160" y="320" width="60" height="40" as="geometry" />
        </mxCell>
        <mxCell id="MwSIgb_RVXlyAXQ-AR61-68" value="Apply" style="rounded=0;whiteSpace=wrap;html=1;fillColor=#66B2FF;" vertex="1" parent="1">
          <mxGeometry x="3160" y="360" width="60" height="40" as="geometry" />
        </mxCell>
        <mxCell id="MwSIgb_RVXlyAXQ-AR61-69" value="Stable" style="rounded=0;whiteSpace=wrap;html=1;fillColor=#66B2FF;" vertex="1" parent="1">
          <mxGeometry x="3160" y="400" width="60" height="40" as="geometry" />
        </mxCell>
        <mxCell id="MwSIgb_RVXlyAXQ-AR61-73" value="FirstIdx" style="rounded=0;whiteSpace=wrap;html=1;fillColor=#66B2FF;" vertex="1" parent="1">
          <mxGeometry x="3160" y="440" width="60" height="40" as="geometry" />
        </mxCell>
        <mxCell id="MwSIgb_RVXlyAXQ-AR61-75" value="Commit" style="rounded=0;whiteSpace=wrap;html=1;fillColor=#66B2FF;" vertex="1" parent="1">
          <mxGeometry x="3400" y="320" width="60" height="40" as="geometry" />
        </mxCell>
        <mxCell id="MwSIgb_RVXlyAXQ-AR61-76" value="Apply" style="rounded=0;whiteSpace=wrap;html=1;fillColor=#66B2FF;" vertex="1" parent="1">
          <mxGeometry x="3400" y="360" width="60" height="40" as="geometry" />
        </mxCell>
        <mxCell id="MwSIgb_RVXlyAXQ-AR61-77" value="Stable" style="rounded=0;whiteSpace=wrap;html=1;fillColor=#66B2FF;" vertex="1" parent="1">
          <mxGeometry x="3400" y="400" width="60" height="40" as="geometry" />
        </mxCell>
        <mxCell id="MwSIgb_RVXlyAXQ-AR61-81" value="FirstIdx" style="rounded=0;whiteSpace=wrap;html=1;fillColor=#66B2FF;" vertex="1" parent="1">
          <mxGeometry x="3400" y="440" width="60" height="40" as="geometry" />
        </mxCell>
        <mxCell id="MwSIgb_RVXlyAXQ-AR61-83" value="Term" style="rounded=0;whiteSpace=wrap;html=1;fillColor=#66B2FF;" vertex="1" parent="1">
          <mxGeometry x="2200" y="560" width="60" height="40" as="geometry" />
        </mxCell>
        <mxCell id="MwSIgb_RVXlyAXQ-AR61-84" value="Index" style="rounded=0;whiteSpace=wrap;html=1;fillColor=#66B2FF;" vertex="1" parent="1">
          <mxGeometry x="2200" y="600" width="60" height="40" as="geometry" />
        </mxCell>
        <mxCell id="MwSIgb_RVXlyAXQ-AR61-85" value="5" style="rounded=0;whiteSpace=wrap;html=1;fillColor=#97D077;" vertex="1" parent="1">
          <mxGeometry x="2260" y="560" width="20" height="40" as="geometry" />
        </mxCell>
        <mxCell id="MwSIgb_RVXlyAXQ-AR61-86" value="5" style="rounded=0;whiteSpace=wrap;html=1;fillColor=#97D077;" vertex="1" parent="1">
          <mxGeometry x="2260" y="600" width="20" height="40" as="geometry" />
        </mxCell>
        <mxCell id="MwSIgb_RVXlyAXQ-AR61-87" value="7" style="rounded=0;whiteSpace=wrap;html=1;fillColor=#97D077;" vertex="1" parent="1">
          <mxGeometry x="2280" y="560" width="20" height="40" as="geometry" />
        </mxCell>
        <mxCell id="MwSIgb_RVXlyAXQ-AR61-88" value="6" style="rounded=0;whiteSpace=wrap;html=1;fillColor=#97D077;" vertex="1" parent="1">
          <mxGeometry x="2280" y="600" width="20" height="40" as="geometry" />
        </mxCell>
        <mxCell id="MwSIgb_RVXlyAXQ-AR61-89" value="9" style="rounded=0;whiteSpace=wrap;html=1;fillColor=#97D077;" vertex="1" parent="1">
          <mxGeometry x="2300" y="560" width="20" height="40" as="geometry" />
        </mxCell>
        <mxCell id="MwSIgb_RVXlyAXQ-AR61-90" value="7" style="rounded=0;whiteSpace=wrap;html=1;fillColor=#97D077;" vertex="1" parent="1">
          <mxGeometry x="2300" y="600" width="20" height="40" as="geometry" />
        </mxCell>
        <mxCell id="MwSIgb_RVXlyAXQ-AR61-91" value="11" style="rounded=0;whiteSpace=wrap;html=1;fillColor=#97D077;" vertex="1" parent="1">
          <mxGeometry x="2320" y="560" width="20" height="40" as="geometry" />
        </mxCell>
        <mxCell id="MwSIgb_RVXlyAXQ-AR61-92" value="8" style="rounded=0;whiteSpace=wrap;html=1;fillColor=#97D077;" vertex="1" parent="1">
          <mxGeometry x="2320" y="600" width="20" height="40" as="geometry" />
        </mxCell>
        <mxCell id="MwSIgb_RVXlyAXQ-AR61-93" value="" style="rounded=0;whiteSpace=wrap;html=1;fillColor=#97D077;" vertex="1" parent="1">
          <mxGeometry x="2338" y="560" width="20" height="40" as="geometry" />
        </mxCell>
        <mxCell id="MwSIgb_RVXlyAXQ-AR61-94" value="" style="rounded=0;whiteSpace=wrap;html=1;fillColor=#97D077;" vertex="1" parent="1">
          <mxGeometry x="2338" y="600" width="20" height="40" as="geometry" />
        </mxCell>
        <mxCell id="MwSIgb_RVXlyAXQ-AR61-95" value="" style="rounded=0;whiteSpace=wrap;html=1;fillColor=#97D077;" vertex="1" parent="1">
          <mxGeometry x="2358" y="560" width="20" height="40" as="geometry" />
        </mxCell>
        <mxCell id="MwSIgb_RVXlyAXQ-AR61-96" value="" style="rounded=0;whiteSpace=wrap;html=1;fillColor=#97D077;" vertex="1" parent="1">
          <mxGeometry x="2358" y="600" width="20" height="40" as="geometry" />
        </mxCell>
        <mxCell id="MwSIgb_RVXlyAXQ-AR61-97" value="" style="rounded=0;whiteSpace=wrap;html=1;fillColor=#97D077;" vertex="1" parent="1">
          <mxGeometry x="2378" y="560" width="20" height="40" as="geometry" />
        </mxCell>
        <mxCell id="MwSIgb_RVXlyAXQ-AR61-98" value="" style="rounded=0;whiteSpace=wrap;html=1;fillColor=#97D077;" vertex="1" parent="1">
          <mxGeometry x="2378" y="600" width="20" height="40" as="geometry" />
        </mxCell>
        <mxCell id="MwSIgb_RVXlyAXQ-AR61-99" value="" style="rounded=0;whiteSpace=wrap;html=1;fillColor=#97D077;" vertex="1" parent="1">
          <mxGeometry x="2398" y="560" width="20" height="40" as="geometry" />
        </mxCell>
        <mxCell id="MwSIgb_RVXlyAXQ-AR61-100" value="" style="rounded=0;whiteSpace=wrap;html=1;fillColor=#97D077;" vertex="1" parent="1">
          <mxGeometry x="2398" y="600" width="20" height="40" as="geometry" />
        </mxCell>
        <mxCell id="MwSIgb_RVXlyAXQ-AR61-101" value="" style="rounded=0;whiteSpace=wrap;html=1;fillColor=#97D077;" vertex="1" parent="1">
          <mxGeometry x="2418" y="560" width="20" height="40" as="geometry" />
        </mxCell>
        <mxCell id="MwSIgb_RVXlyAXQ-AR61-102" value="" style="rounded=0;whiteSpace=wrap;html=1;fillColor=#97D077;" vertex="1" parent="1">
          <mxGeometry x="2418" y="600" width="20" height="40" as="geometry" />
        </mxCell>
        <mxCell id="MwSIgb_RVXlyAXQ-AR61-103" value="" style="rounded=0;whiteSpace=wrap;html=1;fillColor=#97D077;" vertex="1" parent="1">
          <mxGeometry x="2438" y="560" width="20" height="40" as="geometry" />
        </mxCell>
        <mxCell id="MwSIgb_RVXlyAXQ-AR61-104" value="" style="rounded=0;whiteSpace=wrap;html=1;fillColor=#97D077;" vertex="1" parent="1">
          <mxGeometry x="2438" y="600" width="20" height="40" as="geometry" />
        </mxCell>
        <mxCell id="MwSIgb_RVXlyAXQ-AR61-105" value="" style="rounded=0;whiteSpace=wrap;html=1;fillColor=#97D077;" vertex="1" parent="1">
          <mxGeometry x="2458" y="560" width="20" height="40" as="geometry" />
        </mxCell>
        <mxCell id="MwSIgb_RVXlyAXQ-AR61-106" value="" style="rounded=0;whiteSpace=wrap;html=1;fillColor=#97D077;" vertex="1" parent="1">
          <mxGeometry x="2458" y="600" width="20" height="40" as="geometry" />
        </mxCell>
        <mxCell id="MwSIgb_RVXlyAXQ-AR61-107" value="" style="rounded=0;whiteSpace=wrap;html=1;fillColor=#97D077;" vertex="1" parent="1">
          <mxGeometry x="2478" y="560" width="20" height="40" as="geometry" />
        </mxCell>
        <mxCell id="MwSIgb_RVXlyAXQ-AR61-108" value="" style="rounded=0;whiteSpace=wrap;html=1;fillColor=#97D077;" vertex="1" parent="1">
          <mxGeometry x="2478" y="600" width="20" height="40" as="geometry" />
        </mxCell>
        <mxCell id="MwSIgb_RVXlyAXQ-AR61-109" value="" style="rounded=0;whiteSpace=wrap;html=1;fillColor=#97D077;" vertex="1" parent="1">
          <mxGeometry x="2496" y="560" width="20" height="40" as="geometry" />
        </mxCell>
        <mxCell id="MwSIgb_RVXlyAXQ-AR61-110" value="" style="rounded=0;whiteSpace=wrap;html=1;fillColor=#97D077;" vertex="1" parent="1">
          <mxGeometry x="2496" y="600" width="20" height="40" as="geometry" />
        </mxCell>
        <mxCell id="MwSIgb_RVXlyAXQ-AR61-111" value="" style="rounded=0;whiteSpace=wrap;html=1;fillColor=#97D077;" vertex="1" parent="1">
          <mxGeometry x="2516" y="560" width="20" height="40" as="geometry" />
        </mxCell>
        <mxCell id="MwSIgb_RVXlyAXQ-AR61-112" value="" style="rounded=0;whiteSpace=wrap;html=1;fillColor=#97D077;" vertex="1" parent="1">
          <mxGeometry x="2516" y="600" width="20" height="40" as="geometry" />
        </mxCell>
        <mxCell id="MwSIgb_RVXlyAXQ-AR61-113" value="" style="rounded=0;whiteSpace=wrap;html=1;fillColor=#97D077;" vertex="1" parent="1">
          <mxGeometry x="2536" y="560" width="20" height="40" as="geometry" />
        </mxCell>
        <mxCell id="MwSIgb_RVXlyAXQ-AR61-114" value="" style="rounded=0;whiteSpace=wrap;html=1;fillColor=#97D077;" vertex="1" parent="1">
          <mxGeometry x="2536" y="600" width="20" height="40" as="geometry" />
        </mxCell>
        <mxCell id="MwSIgb_RVXlyAXQ-AR61-115" value="" style="rounded=0;whiteSpace=wrap;html=1;fillColor=#97D077;" vertex="1" parent="1">
          <mxGeometry x="2556" y="560" width="20" height="40" as="geometry" />
        </mxCell>
        <mxCell id="MwSIgb_RVXlyAXQ-AR61-116" value="" style="rounded=0;whiteSpace=wrap;html=1;fillColor=#97D077;" vertex="1" parent="1">
          <mxGeometry x="2556" y="600" width="20" height="40" as="geometry" />
        </mxCell>
        <mxCell id="MwSIgb_RVXlyAXQ-AR61-117" value="" style="rounded=0;whiteSpace=wrap;html=1;fillColor=#97D077;" vertex="1" parent="1">
          <mxGeometry x="2260" y="640" width="20" height="40" as="geometry" />
        </mxCell>
        <mxCell id="MwSIgb_RVXlyAXQ-AR61-118" value="" style="rounded=0;whiteSpace=wrap;html=1;fillColor=#97D077;" vertex="1" parent="1">
          <mxGeometry x="2260" y="680" width="20" height="40" as="geometry" />
        </mxCell>
        <mxCell id="MwSIgb_RVXlyAXQ-AR61-119" value="" style="rounded=0;whiteSpace=wrap;html=1;fillColor=#97D077;" vertex="1" parent="1">
          <mxGeometry x="2280" y="640" width="20" height="40" as="geometry" />
        </mxCell>
        <mxCell id="MwSIgb_RVXlyAXQ-AR61-120" value="" style="rounded=0;whiteSpace=wrap;html=1;fillColor=#97D077;" vertex="1" parent="1">
          <mxGeometry x="2280" y="680" width="20" height="40" as="geometry" />
        </mxCell>
        <mxCell id="MwSIgb_RVXlyAXQ-AR61-121" value="" style="rounded=0;whiteSpace=wrap;html=1;fillColor=#97D077;" vertex="1" parent="1">
          <mxGeometry x="2300" y="640" width="20" height="40" as="geometry" />
        </mxCell>
        <mxCell id="MwSIgb_RVXlyAXQ-AR61-122" value="" style="rounded=0;whiteSpace=wrap;html=1;fillColor=#97D077;" vertex="1" parent="1">
          <mxGeometry x="2300" y="680" width="20" height="40" as="geometry" />
        </mxCell>
        <mxCell id="MwSIgb_RVXlyAXQ-AR61-123" value="" style="rounded=0;whiteSpace=wrap;html=1;fillColor=#97D077;" vertex="1" parent="1">
          <mxGeometry x="2320" y="640" width="20" height="40" as="geometry" />
        </mxCell>
        <mxCell id="MwSIgb_RVXlyAXQ-AR61-124" value="" style="rounded=0;whiteSpace=wrap;html=1;fillColor=#97D077;" vertex="1" parent="1">
          <mxGeometry x="2320" y="680" width="20" height="40" as="geometry" />
        </mxCell>
        <mxCell id="MwSIgb_RVXlyAXQ-AR61-125" value="" style="rounded=0;whiteSpace=wrap;html=1;fillColor=#97D077;" vertex="1" parent="1">
          <mxGeometry x="2338" y="640" width="20" height="40" as="geometry" />
        </mxCell>
        <mxCell id="MwSIgb_RVXlyAXQ-AR61-126" value="" style="rounded=0;whiteSpace=wrap;html=1;fillColor=#97D077;" vertex="1" parent="1">
          <mxGeometry x="2338" y="680" width="20" height="40" as="geometry" />
        </mxCell>
        <mxCell id="MwSIgb_RVXlyAXQ-AR61-127" value="" style="rounded=0;whiteSpace=wrap;html=1;fillColor=#97D077;" vertex="1" parent="1">
          <mxGeometry x="2358" y="640" width="20" height="40" as="geometry" />
        </mxCell>
        <mxCell id="MwSIgb_RVXlyAXQ-AR61-128" value="" style="rounded=0;whiteSpace=wrap;html=1;fillColor=#97D077;" vertex="1" parent="1">
          <mxGeometry x="2358" y="680" width="20" height="40" as="geometry" />
        </mxCell>
        <mxCell id="MwSIgb_RVXlyAXQ-AR61-129" value="" style="rounded=0;whiteSpace=wrap;html=1;fillColor=#97D077;" vertex="1" parent="1">
          <mxGeometry x="2378" y="640" width="20" height="40" as="geometry" />
        </mxCell>
        <mxCell id="MwSIgb_RVXlyAXQ-AR61-130" value="" style="rounded=0;whiteSpace=wrap;html=1;fillColor=#97D077;" vertex="1" parent="1">
          <mxGeometry x="2378" y="680" width="20" height="40" as="geometry" />
        </mxCell>
        <mxCell id="MwSIgb_RVXlyAXQ-AR61-131" value="" style="rounded=0;whiteSpace=wrap;html=1;fillColor=#97D077;" vertex="1" parent="1">
          <mxGeometry x="2398" y="640" width="20" height="40" as="geometry" />
        </mxCell>
        <mxCell id="MwSIgb_RVXlyAXQ-AR61-132" value="" style="rounded=0;whiteSpace=wrap;html=1;fillColor=#97D077;" vertex="1" parent="1">
          <mxGeometry x="2398" y="680" width="20" height="40" as="geometry" />
        </mxCell>
        <mxCell id="MwSIgb_RVXlyAXQ-AR61-133" value="" style="rounded=0;whiteSpace=wrap;html=1;fillColor=#97D077;" vertex="1" parent="1">
          <mxGeometry x="2418" y="640" width="20" height="40" as="geometry" />
        </mxCell>
        <mxCell id="MwSIgb_RVXlyAXQ-AR61-134" value="" style="rounded=0;whiteSpace=wrap;html=1;fillColor=#97D077;" vertex="1" parent="1">
          <mxGeometry x="2418" y="680" width="20" height="40" as="geometry" />
        </mxCell>
        <mxCell id="MwSIgb_RVXlyAXQ-AR61-135" value="" style="rounded=0;whiteSpace=wrap;html=1;fillColor=#97D077;" vertex="1" parent="1">
          <mxGeometry x="2438" y="640" width="20" height="40" as="geometry" />
        </mxCell>
        <mxCell id="MwSIgb_RVXlyAXQ-AR61-136" value="" style="rounded=0;whiteSpace=wrap;html=1;fillColor=#97D077;" vertex="1" parent="1">
          <mxGeometry x="2438" y="680" width="20" height="40" as="geometry" />
        </mxCell>
        <mxCell id="MwSIgb_RVXlyAXQ-AR61-137" value="" style="rounded=0;whiteSpace=wrap;html=1;fillColor=#97D077;" vertex="1" parent="1">
          <mxGeometry x="2458" y="640" width="20" height="40" as="geometry" />
        </mxCell>
        <mxCell id="MwSIgb_RVXlyAXQ-AR61-138" value="" style="rounded=0;whiteSpace=wrap;html=1;fillColor=#97D077;" vertex="1" parent="1">
          <mxGeometry x="2458" y="680" width="20" height="40" as="geometry" />
        </mxCell>
        <mxCell id="MwSIgb_RVXlyAXQ-AR61-139" value="" style="rounded=0;whiteSpace=wrap;html=1;fillColor=#97D077;" vertex="1" parent="1">
          <mxGeometry x="2478" y="640" width="20" height="40" as="geometry" />
        </mxCell>
        <mxCell id="MwSIgb_RVXlyAXQ-AR61-140" value="" style="rounded=0;whiteSpace=wrap;html=1;fillColor=#97D077;" vertex="1" parent="1">
          <mxGeometry x="2478" y="680" width="20" height="40" as="geometry" />
        </mxCell>
        <mxCell id="MwSIgb_RVXlyAXQ-AR61-141" value="" style="rounded=0;whiteSpace=wrap;html=1;fillColor=#97D077;" vertex="1" parent="1">
          <mxGeometry x="2496" y="640" width="20" height="40" as="geometry" />
        </mxCell>
        <mxCell id="MwSIgb_RVXlyAXQ-AR61-142" value="" style="rounded=0;whiteSpace=wrap;html=1;fillColor=#97D077;" vertex="1" parent="1">
          <mxGeometry x="2496" y="680" width="20" height="40" as="geometry" />
        </mxCell>
        <mxCell id="MwSIgb_RVXlyAXQ-AR61-143" value="" style="rounded=0;whiteSpace=wrap;html=1;fillColor=#97D077;" vertex="1" parent="1">
          <mxGeometry x="2516" y="640" width="20" height="40" as="geometry" />
        </mxCell>
        <mxCell id="MwSIgb_RVXlyAXQ-AR61-144" value="" style="rounded=0;whiteSpace=wrap;html=1;fillColor=#97D077;" vertex="1" parent="1">
          <mxGeometry x="2516" y="680" width="20" height="40" as="geometry" />
        </mxCell>
        <mxCell id="MwSIgb_RVXlyAXQ-AR61-145" value="" style="rounded=0;whiteSpace=wrap;html=1;fillColor=#97D077;" vertex="1" parent="1">
          <mxGeometry x="2536" y="640" width="20" height="40" as="geometry" />
        </mxCell>
        <mxCell id="MwSIgb_RVXlyAXQ-AR61-146" value="" style="rounded=0;whiteSpace=wrap;html=1;fillColor=#97D077;" vertex="1" parent="1">
          <mxGeometry x="2536" y="680" width="20" height="40" as="geometry" />
        </mxCell>
        <mxCell id="MwSIgb_RVXlyAXQ-AR61-147" value="" style="rounded=0;whiteSpace=wrap;html=1;fillColor=#97D077;" vertex="1" parent="1">
          <mxGeometry x="2556" y="640" width="20" height="40" as="geometry" />
        </mxCell>
        <mxCell id="MwSIgb_RVXlyAXQ-AR61-148" value="" style="rounded=0;whiteSpace=wrap;html=1;fillColor=#97D077;" vertex="1" parent="1">
          <mxGeometry x="2556" y="680" width="20" height="40" as="geometry" />
        </mxCell>
        <mxCell id="MwSIgb_RVXlyAXQ-AR61-149" value="Term" style="rounded=0;whiteSpace=wrap;html=1;fillColor=#66B2FF;" vertex="1" parent="1">
          <mxGeometry x="2200" y="640" width="60" height="40" as="geometry" />
        </mxCell>
        <mxCell id="MwSIgb_RVXlyAXQ-AR61-150" value="Index" style="rounded=0;whiteSpace=wrap;html=1;fillColor=#66B2FF;" vertex="1" parent="1">
          <mxGeometry x="2200" y="680" width="60" height="40" as="geometry" />
        </mxCell>
        <mxCell id="MwSIgb_RVXlyAXQ-AR61-151" value="" style="rounded=0;whiteSpace=wrap;html=1;fillColor=#97D077;" vertex="1" parent="1">
          <mxGeometry x="2260" y="720" width="20" height="40" as="geometry" />
        </mxCell>
        <mxCell id="MwSIgb_RVXlyAXQ-AR61-152" value="" style="rounded=0;whiteSpace=wrap;html=1;fillColor=#97D077;" vertex="1" parent="1">
          <mxGeometry x="2260" y="760" width="20" height="40" as="geometry" />
        </mxCell>
        <mxCell id="MwSIgb_RVXlyAXQ-AR61-153" value="" style="rounded=0;whiteSpace=wrap;html=1;fillColor=#97D077;" vertex="1" parent="1">
          <mxGeometry x="2280" y="720" width="20" height="40" as="geometry" />
        </mxCell>
        <mxCell id="MwSIgb_RVXlyAXQ-AR61-154" value="" style="rounded=0;whiteSpace=wrap;html=1;fillColor=#97D077;" vertex="1" parent="1">
          <mxGeometry x="2280" y="760" width="20" height="40" as="geometry" />
        </mxCell>
        <mxCell id="MwSIgb_RVXlyAXQ-AR61-155" value="" style="rounded=0;whiteSpace=wrap;html=1;fillColor=#97D077;" vertex="1" parent="1">
          <mxGeometry x="2300" y="720" width="20" height="40" as="geometry" />
        </mxCell>
        <mxCell id="MwSIgb_RVXlyAXQ-AR61-156" value="" style="rounded=0;whiteSpace=wrap;html=1;fillColor=#97D077;" vertex="1" parent="1">
          <mxGeometry x="2300" y="760" width="20" height="40" as="geometry" />
        </mxCell>
        <mxCell id="MwSIgb_RVXlyAXQ-AR61-157" value="" style="rounded=0;whiteSpace=wrap;html=1;fillColor=#97D077;" vertex="1" parent="1">
          <mxGeometry x="2320" y="720" width="20" height="40" as="geometry" />
        </mxCell>
        <mxCell id="MwSIgb_RVXlyAXQ-AR61-158" value="" style="rounded=0;whiteSpace=wrap;html=1;fillColor=#97D077;" vertex="1" parent="1">
          <mxGeometry x="2320" y="760" width="20" height="40" as="geometry" />
        </mxCell>
        <mxCell id="MwSIgb_RVXlyAXQ-AR61-159" value="" style="rounded=0;whiteSpace=wrap;html=1;fillColor=#97D077;" vertex="1" parent="1">
          <mxGeometry x="2338" y="720" width="20" height="40" as="geometry" />
        </mxCell>
        <mxCell id="MwSIgb_RVXlyAXQ-AR61-160" value="" style="rounded=0;whiteSpace=wrap;html=1;fillColor=#97D077;" vertex="1" parent="1">
          <mxGeometry x="2338" y="760" width="20" height="40" as="geometry" />
        </mxCell>
        <mxCell id="MwSIgb_RVXlyAXQ-AR61-161" value="" style="rounded=0;whiteSpace=wrap;html=1;fillColor=#97D077;" vertex="1" parent="1">
          <mxGeometry x="2358" y="720" width="20" height="40" as="geometry" />
        </mxCell>
        <mxCell id="MwSIgb_RVXlyAXQ-AR61-162" value="" style="rounded=0;whiteSpace=wrap;html=1;fillColor=#97D077;" vertex="1" parent="1">
          <mxGeometry x="2358" y="760" width="20" height="40" as="geometry" />
        </mxCell>
        <mxCell id="MwSIgb_RVXlyAXQ-AR61-163" value="" style="rounded=0;whiteSpace=wrap;html=1;fillColor=#97D077;" vertex="1" parent="1">
          <mxGeometry x="2378" y="720" width="20" height="40" as="geometry" />
        </mxCell>
        <mxCell id="MwSIgb_RVXlyAXQ-AR61-164" value="" style="rounded=0;whiteSpace=wrap;html=1;fillColor=#97D077;" vertex="1" parent="1">
          <mxGeometry x="2378" y="760" width="20" height="40" as="geometry" />
        </mxCell>
        <mxCell id="MwSIgb_RVXlyAXQ-AR61-165" value="" style="rounded=0;whiteSpace=wrap;html=1;fillColor=#97D077;" vertex="1" parent="1">
          <mxGeometry x="2398" y="720" width="20" height="40" as="geometry" />
        </mxCell>
        <mxCell id="MwSIgb_RVXlyAXQ-AR61-166" value="" style="rounded=0;whiteSpace=wrap;html=1;fillColor=#97D077;" vertex="1" parent="1">
          <mxGeometry x="2398" y="760" width="20" height="40" as="geometry" />
        </mxCell>
        <mxCell id="MwSIgb_RVXlyAXQ-AR61-167" value="" style="rounded=0;whiteSpace=wrap;html=1;fillColor=#97D077;" vertex="1" parent="1">
          <mxGeometry x="2418" y="720" width="20" height="40" as="geometry" />
        </mxCell>
        <mxCell id="MwSIgb_RVXlyAXQ-AR61-168" value="" style="rounded=0;whiteSpace=wrap;html=1;fillColor=#97D077;" vertex="1" parent="1">
          <mxGeometry x="2418" y="760" width="20" height="40" as="geometry" />
        </mxCell>
        <mxCell id="MwSIgb_RVXlyAXQ-AR61-169" value="" style="rounded=0;whiteSpace=wrap;html=1;fillColor=#97D077;" vertex="1" parent="1">
          <mxGeometry x="2438" y="720" width="20" height="40" as="geometry" />
        </mxCell>
        <mxCell id="MwSIgb_RVXlyAXQ-AR61-170" value="" style="rounded=0;whiteSpace=wrap;html=1;fillColor=#97D077;" vertex="1" parent="1">
          <mxGeometry x="2438" y="760" width="20" height="40" as="geometry" />
        </mxCell>
        <mxCell id="MwSIgb_RVXlyAXQ-AR61-171" value="" style="rounded=0;whiteSpace=wrap;html=1;fillColor=#97D077;" vertex="1" parent="1">
          <mxGeometry x="2458" y="720" width="20" height="40" as="geometry" />
        </mxCell>
        <mxCell id="MwSIgb_RVXlyAXQ-AR61-172" value="" style="rounded=0;whiteSpace=wrap;html=1;fillColor=#97D077;" vertex="1" parent="1">
          <mxGeometry x="2458" y="760" width="20" height="40" as="geometry" />
        </mxCell>
        <mxCell id="MwSIgb_RVXlyAXQ-AR61-173" value="" style="rounded=0;whiteSpace=wrap;html=1;fillColor=#97D077;" vertex="1" parent="1">
          <mxGeometry x="2478" y="720" width="20" height="40" as="geometry" />
        </mxCell>
        <mxCell id="MwSIgb_RVXlyAXQ-AR61-174" value="" style="rounded=0;whiteSpace=wrap;html=1;fillColor=#97D077;" vertex="1" parent="1">
          <mxGeometry x="2478" y="760" width="20" height="40" as="geometry" />
        </mxCell>
        <mxCell id="MwSIgb_RVXlyAXQ-AR61-175" value="" style="rounded=0;whiteSpace=wrap;html=1;fillColor=#97D077;" vertex="1" parent="1">
          <mxGeometry x="2496" y="720" width="20" height="40" as="geometry" />
        </mxCell>
        <mxCell id="MwSIgb_RVXlyAXQ-AR61-176" value="" style="rounded=0;whiteSpace=wrap;html=1;fillColor=#97D077;" vertex="1" parent="1">
          <mxGeometry x="2496" y="760" width="20" height="40" as="geometry" />
        </mxCell>
        <mxCell id="MwSIgb_RVXlyAXQ-AR61-177" value="" style="rounded=0;whiteSpace=wrap;html=1;fillColor=#97D077;" vertex="1" parent="1">
          <mxGeometry x="2516" y="720" width="20" height="40" as="geometry" />
        </mxCell>
        <mxCell id="MwSIgb_RVXlyAXQ-AR61-178" value="" style="rounded=0;whiteSpace=wrap;html=1;fillColor=#97D077;" vertex="1" parent="1">
          <mxGeometry x="2516" y="760" width="20" height="40" as="geometry" />
        </mxCell>
        <mxCell id="MwSIgb_RVXlyAXQ-AR61-179" value="" style="rounded=0;whiteSpace=wrap;html=1;fillColor=#97D077;" vertex="1" parent="1">
          <mxGeometry x="2536" y="720" width="20" height="40" as="geometry" />
        </mxCell>
        <mxCell id="MwSIgb_RVXlyAXQ-AR61-180" value="" style="rounded=0;whiteSpace=wrap;html=1;fillColor=#97D077;" vertex="1" parent="1">
          <mxGeometry x="2536" y="760" width="20" height="40" as="geometry" />
        </mxCell>
        <mxCell id="MwSIgb_RVXlyAXQ-AR61-181" value="" style="rounded=0;whiteSpace=wrap;html=1;fillColor=#97D077;" vertex="1" parent="1">
          <mxGeometry x="2556" y="720" width="20" height="40" as="geometry" />
        </mxCell>
        <mxCell id="MwSIgb_RVXlyAXQ-AR61-182" value="" style="rounded=0;whiteSpace=wrap;html=1;fillColor=#97D077;" vertex="1" parent="1">
          <mxGeometry x="2556" y="760" width="20" height="40" as="geometry" />
        </mxCell>
        <mxCell id="MwSIgb_RVXlyAXQ-AR61-183" value="Term" style="rounded=0;whiteSpace=wrap;html=1;fillColor=#66B2FF;" vertex="1" parent="1">
          <mxGeometry x="2200" y="720" width="60" height="40" as="geometry" />
        </mxCell>
        <mxCell id="MwSIgb_RVXlyAXQ-AR61-184" value="Index" style="rounded=0;whiteSpace=wrap;html=1;fillColor=#66B2FF;" vertex="1" parent="1">
          <mxGeometry x="2200" y="760" width="60" height="40" as="geometry" />
        </mxCell>
        <mxCell id="MwSIgb_RVXlyAXQ-AR61-185" value="Term" style="rounded=0;whiteSpace=wrap;html=1;fillColor=#66B2FF;" vertex="1" parent="1">
          <mxGeometry x="2600" y="560" width="60" height="40" as="geometry" />
        </mxCell>
        <mxCell id="MwSIgb_RVXlyAXQ-AR61-186" value="Index" style="rounded=0;whiteSpace=wrap;html=1;fillColor=#66B2FF;" vertex="1" parent="1">
          <mxGeometry x="2600" y="600" width="60" height="40" as="geometry" />
        </mxCell>
        <mxCell id="MwSIgb_RVXlyAXQ-AR61-187" value="5" style="rounded=0;whiteSpace=wrap;html=1;fillColor=#97D077;" vertex="1" parent="1">
          <mxGeometry x="2660" y="560" width="20" height="40" as="geometry" />
        </mxCell>
        <mxCell id="MwSIgb_RVXlyAXQ-AR61-188" value="5" style="rounded=0;whiteSpace=wrap;html=1;fillColor=#97D077;" vertex="1" parent="1">
          <mxGeometry x="2660" y="600" width="20" height="40" as="geometry" />
        </mxCell>
        <mxCell id="MwSIgb_RVXlyAXQ-AR61-189" value="7" style="rounded=0;whiteSpace=wrap;html=1;fillColor=#97D077;" vertex="1" parent="1">
          <mxGeometry x="2680" y="560" width="20" height="40" as="geometry" />
        </mxCell>
        <mxCell id="MwSIgb_RVXlyAXQ-AR61-190" value="6" style="rounded=0;whiteSpace=wrap;html=1;fillColor=#97D077;" vertex="1" parent="1">
          <mxGeometry x="2680" y="600" width="20" height="40" as="geometry" />
        </mxCell>
        <mxCell id="MwSIgb_RVXlyAXQ-AR61-191" value="9" style="rounded=0;whiteSpace=wrap;html=1;fillColor=#97D077;" vertex="1" parent="1">
          <mxGeometry x="2700" y="560" width="20" height="40" as="geometry" />
        </mxCell>
        <mxCell id="MwSIgb_RVXlyAXQ-AR61-192" value="7" style="rounded=0;whiteSpace=wrap;html=1;fillColor=#97D077;" vertex="1" parent="1">
          <mxGeometry x="2700" y="600" width="20" height="40" as="geometry" />
        </mxCell>
        <mxCell id="MwSIgb_RVXlyAXQ-AR61-193" value="11" style="rounded=0;whiteSpace=wrap;html=1;fillColor=#97D077;" vertex="1" parent="1">
          <mxGeometry x="2720" y="560" width="20" height="40" as="geometry" />
        </mxCell>
        <mxCell id="MwSIgb_RVXlyAXQ-AR61-194" value="8" style="rounded=0;whiteSpace=wrap;html=1;fillColor=#97D077;" vertex="1" parent="1">
          <mxGeometry x="2720" y="600" width="20" height="40" as="geometry" />
        </mxCell>
        <mxCell id="MwSIgb_RVXlyAXQ-AR61-195" value="" style="rounded=0;whiteSpace=wrap;html=1;fillColor=#97D077;" vertex="1" parent="1">
          <mxGeometry x="2738" y="560" width="20" height="40" as="geometry" />
        </mxCell>
        <mxCell id="MwSIgb_RVXlyAXQ-AR61-196" value="" style="rounded=0;whiteSpace=wrap;html=1;fillColor=#97D077;" vertex="1" parent="1">
          <mxGeometry x="2738" y="600" width="20" height="40" as="geometry" />
        </mxCell>
        <mxCell id="MwSIgb_RVXlyAXQ-AR61-197" value="" style="rounded=0;whiteSpace=wrap;html=1;fillColor=#97D077;" vertex="1" parent="1">
          <mxGeometry x="2758" y="560" width="20" height="40" as="geometry" />
        </mxCell>
        <mxCell id="MwSIgb_RVXlyAXQ-AR61-198" value="" style="rounded=0;whiteSpace=wrap;html=1;fillColor=#97D077;" vertex="1" parent="1">
          <mxGeometry x="2758" y="600" width="20" height="40" as="geometry" />
        </mxCell>
        <mxCell id="MwSIgb_RVXlyAXQ-AR61-199" value="" style="rounded=0;whiteSpace=wrap;html=1;fillColor=#97D077;" vertex="1" parent="1">
          <mxGeometry x="2778" y="560" width="20" height="40" as="geometry" />
        </mxCell>
        <mxCell id="MwSIgb_RVXlyAXQ-AR61-200" value="" style="rounded=0;whiteSpace=wrap;html=1;fillColor=#97D077;" vertex="1" parent="1">
          <mxGeometry x="2778" y="600" width="20" height="40" as="geometry" />
        </mxCell>
        <mxCell id="MwSIgb_RVXlyAXQ-AR61-201" value="" style="rounded=0;whiteSpace=wrap;html=1;fillColor=#97D077;" vertex="1" parent="1">
          <mxGeometry x="2798" y="560" width="20" height="40" as="geometry" />
        </mxCell>
        <mxCell id="MwSIgb_RVXlyAXQ-AR61-202" value="" style="rounded=0;whiteSpace=wrap;html=1;fillColor=#97D077;" vertex="1" parent="1">
          <mxGeometry x="2798" y="600" width="20" height="40" as="geometry" />
        </mxCell>
        <mxCell id="MwSIgb_RVXlyAXQ-AR61-203" value="" style="rounded=0;whiteSpace=wrap;html=1;fillColor=#97D077;" vertex="1" parent="1">
          <mxGeometry x="2818" y="560" width="20" height="40" as="geometry" />
        </mxCell>
        <mxCell id="MwSIgb_RVXlyAXQ-AR61-204" value="" style="rounded=0;whiteSpace=wrap;html=1;fillColor=#97D077;" vertex="1" parent="1">
          <mxGeometry x="2818" y="600" width="20" height="40" as="geometry" />
        </mxCell>
        <mxCell id="MwSIgb_RVXlyAXQ-AR61-205" value="" style="rounded=0;whiteSpace=wrap;html=1;fillColor=#97D077;" vertex="1" parent="1">
          <mxGeometry x="2838" y="560" width="20" height="40" as="geometry" />
        </mxCell>
        <mxCell id="MwSIgb_RVXlyAXQ-AR61-206" value="" style="rounded=0;whiteSpace=wrap;html=1;fillColor=#97D077;" vertex="1" parent="1">
          <mxGeometry x="2838" y="600" width="20" height="40" as="geometry" />
        </mxCell>
        <mxCell id="MwSIgb_RVXlyAXQ-AR61-207" value="" style="rounded=0;whiteSpace=wrap;html=1;fillColor=#97D077;" vertex="1" parent="1">
          <mxGeometry x="2858" y="560" width="20" height="40" as="geometry" />
        </mxCell>
        <mxCell id="MwSIgb_RVXlyAXQ-AR61-208" value="" style="rounded=0;whiteSpace=wrap;html=1;fillColor=#97D077;" vertex="1" parent="1">
          <mxGeometry x="2858" y="600" width="20" height="40" as="geometry" />
        </mxCell>
        <mxCell id="MwSIgb_RVXlyAXQ-AR61-209" value="" style="rounded=0;whiteSpace=wrap;html=1;fillColor=#97D077;" vertex="1" parent="1">
          <mxGeometry x="2878" y="560" width="20" height="40" as="geometry" />
        </mxCell>
        <mxCell id="MwSIgb_RVXlyAXQ-AR61-210" value="" style="rounded=0;whiteSpace=wrap;html=1;fillColor=#97D077;" vertex="1" parent="1">
          <mxGeometry x="2878" y="600" width="20" height="40" as="geometry" />
        </mxCell>
        <mxCell id="MwSIgb_RVXlyAXQ-AR61-211" value="" style="rounded=0;whiteSpace=wrap;html=1;fillColor=#97D077;" vertex="1" parent="1">
          <mxGeometry x="2896" y="560" width="20" height="40" as="geometry" />
        </mxCell>
        <mxCell id="MwSIgb_RVXlyAXQ-AR61-212" value="" style="rounded=0;whiteSpace=wrap;html=1;fillColor=#97D077;" vertex="1" parent="1">
          <mxGeometry x="2896" y="600" width="20" height="40" as="geometry" />
        </mxCell>
        <mxCell id="MwSIgb_RVXlyAXQ-AR61-213" value="" style="rounded=0;whiteSpace=wrap;html=1;fillColor=#97D077;" vertex="1" parent="1">
          <mxGeometry x="2916" y="560" width="20" height="40" as="geometry" />
        </mxCell>
        <mxCell id="MwSIgb_RVXlyAXQ-AR61-214" value="" style="rounded=0;whiteSpace=wrap;html=1;fillColor=#97D077;" vertex="1" parent="1">
          <mxGeometry x="2916" y="600" width="20" height="40" as="geometry" />
        </mxCell>
        <mxCell id="MwSIgb_RVXlyAXQ-AR61-215" value="" style="rounded=0;whiteSpace=wrap;html=1;fillColor=#97D077;" vertex="1" parent="1">
          <mxGeometry x="2936" y="560" width="20" height="40" as="geometry" />
        </mxCell>
        <mxCell id="MwSIgb_RVXlyAXQ-AR61-216" value="" style="rounded=0;whiteSpace=wrap;html=1;fillColor=#97D077;" vertex="1" parent="1">
          <mxGeometry x="2936" y="600" width="20" height="40" as="geometry" />
        </mxCell>
        <mxCell id="MwSIgb_RVXlyAXQ-AR61-217" value="" style="rounded=0;whiteSpace=wrap;html=1;fillColor=#97D077;" vertex="1" parent="1">
          <mxGeometry x="2956" y="560" width="20" height="40" as="geometry" />
        </mxCell>
        <mxCell id="MwSIgb_RVXlyAXQ-AR61-218" value="" style="rounded=0;whiteSpace=wrap;html=1;fillColor=#97D077;" vertex="1" parent="1">
          <mxGeometry x="2956" y="600" width="20" height="40" as="geometry" />
        </mxCell>
        <mxCell id="MwSIgb_RVXlyAXQ-AR61-219" value="" style="rounded=0;whiteSpace=wrap;html=1;fillColor=#97D077;" vertex="1" parent="1">
          <mxGeometry x="2660" y="640" width="20" height="40" as="geometry" />
        </mxCell>
        <mxCell id="MwSIgb_RVXlyAXQ-AR61-220" value="" style="rounded=0;whiteSpace=wrap;html=1;fillColor=#97D077;" vertex="1" parent="1">
          <mxGeometry x="2660" y="680" width="20" height="40" as="geometry" />
        </mxCell>
        <mxCell id="MwSIgb_RVXlyAXQ-AR61-221" value="" style="rounded=0;whiteSpace=wrap;html=1;fillColor=#97D077;" vertex="1" parent="1">
          <mxGeometry x="2680" y="640" width="20" height="40" as="geometry" />
        </mxCell>
        <mxCell id="MwSIgb_RVXlyAXQ-AR61-222" value="" style="rounded=0;whiteSpace=wrap;html=1;fillColor=#97D077;" vertex="1" parent="1">
          <mxGeometry x="2680" y="680" width="20" height="40" as="geometry" />
        </mxCell>
        <mxCell id="MwSIgb_RVXlyAXQ-AR61-223" value="" style="rounded=0;whiteSpace=wrap;html=1;fillColor=#97D077;" vertex="1" parent="1">
          <mxGeometry x="2700" y="640" width="20" height="40" as="geometry" />
        </mxCell>
        <mxCell id="MwSIgb_RVXlyAXQ-AR61-224" value="" style="rounded=0;whiteSpace=wrap;html=1;fillColor=#97D077;" vertex="1" parent="1">
          <mxGeometry x="2700" y="680" width="20" height="40" as="geometry" />
        </mxCell>
        <mxCell id="MwSIgb_RVXlyAXQ-AR61-225" value="" style="rounded=0;whiteSpace=wrap;html=1;fillColor=#97D077;" vertex="1" parent="1">
          <mxGeometry x="2720" y="640" width="20" height="40" as="geometry" />
        </mxCell>
        <mxCell id="MwSIgb_RVXlyAXQ-AR61-226" value="" style="rounded=0;whiteSpace=wrap;html=1;fillColor=#97D077;" vertex="1" parent="1">
          <mxGeometry x="2720" y="680" width="20" height="40" as="geometry" />
        </mxCell>
        <mxCell id="MwSIgb_RVXlyAXQ-AR61-227" value="" style="rounded=0;whiteSpace=wrap;html=1;fillColor=#97D077;" vertex="1" parent="1">
          <mxGeometry x="2738" y="640" width="20" height="40" as="geometry" />
        </mxCell>
        <mxCell id="MwSIgb_RVXlyAXQ-AR61-228" value="" style="rounded=0;whiteSpace=wrap;html=1;fillColor=#97D077;" vertex="1" parent="1">
          <mxGeometry x="2738" y="680" width="20" height="40" as="geometry" />
        </mxCell>
        <mxCell id="MwSIgb_RVXlyAXQ-AR61-229" value="" style="rounded=0;whiteSpace=wrap;html=1;fillColor=#97D077;" vertex="1" parent="1">
          <mxGeometry x="2758" y="640" width="20" height="40" as="geometry" />
        </mxCell>
        <mxCell id="MwSIgb_RVXlyAXQ-AR61-230" value="" style="rounded=0;whiteSpace=wrap;html=1;fillColor=#97D077;" vertex="1" parent="1">
          <mxGeometry x="2758" y="680" width="20" height="40" as="geometry" />
        </mxCell>
        <mxCell id="MwSIgb_RVXlyAXQ-AR61-231" value="" style="rounded=0;whiteSpace=wrap;html=1;fillColor=#97D077;" vertex="1" parent="1">
          <mxGeometry x="2778" y="640" width="20" height="40" as="geometry" />
        </mxCell>
        <mxCell id="MwSIgb_RVXlyAXQ-AR61-232" value="" style="rounded=0;whiteSpace=wrap;html=1;fillColor=#97D077;" vertex="1" parent="1">
          <mxGeometry x="2778" y="680" width="20" height="40" as="geometry" />
        </mxCell>
        <mxCell id="MwSIgb_RVXlyAXQ-AR61-233" value="" style="rounded=0;whiteSpace=wrap;html=1;fillColor=#97D077;" vertex="1" parent="1">
          <mxGeometry x="2798" y="640" width="20" height="40" as="geometry" />
        </mxCell>
        <mxCell id="MwSIgb_RVXlyAXQ-AR61-234" value="" style="rounded=0;whiteSpace=wrap;html=1;fillColor=#97D077;" vertex="1" parent="1">
          <mxGeometry x="2798" y="680" width="20" height="40" as="geometry" />
        </mxCell>
        <mxCell id="MwSIgb_RVXlyAXQ-AR61-235" value="" style="rounded=0;whiteSpace=wrap;html=1;fillColor=#97D077;" vertex="1" parent="1">
          <mxGeometry x="2818" y="640" width="20" height="40" as="geometry" />
        </mxCell>
        <mxCell id="MwSIgb_RVXlyAXQ-AR61-236" value="" style="rounded=0;whiteSpace=wrap;html=1;fillColor=#97D077;" vertex="1" parent="1">
          <mxGeometry x="2818" y="680" width="20" height="40" as="geometry" />
        </mxCell>
        <mxCell id="MwSIgb_RVXlyAXQ-AR61-237" value="" style="rounded=0;whiteSpace=wrap;html=1;fillColor=#97D077;" vertex="1" parent="1">
          <mxGeometry x="2838" y="640" width="20" height="40" as="geometry" />
        </mxCell>
        <mxCell id="MwSIgb_RVXlyAXQ-AR61-238" value="" style="rounded=0;whiteSpace=wrap;html=1;fillColor=#97D077;" vertex="1" parent="1">
          <mxGeometry x="2838" y="680" width="20" height="40" as="geometry" />
        </mxCell>
        <mxCell id="MwSIgb_RVXlyAXQ-AR61-239" value="" style="rounded=0;whiteSpace=wrap;html=1;fillColor=#97D077;" vertex="1" parent="1">
          <mxGeometry x="2858" y="640" width="20" height="40" as="geometry" />
        </mxCell>
        <mxCell id="MwSIgb_RVXlyAXQ-AR61-240" value="" style="rounded=0;whiteSpace=wrap;html=1;fillColor=#97D077;" vertex="1" parent="1">
          <mxGeometry x="2858" y="680" width="20" height="40" as="geometry" />
        </mxCell>
        <mxCell id="MwSIgb_RVXlyAXQ-AR61-241" value="" style="rounded=0;whiteSpace=wrap;html=1;fillColor=#97D077;" vertex="1" parent="1">
          <mxGeometry x="2878" y="640" width="20" height="40" as="geometry" />
        </mxCell>
        <mxCell id="MwSIgb_RVXlyAXQ-AR61-242" value="" style="rounded=0;whiteSpace=wrap;html=1;fillColor=#97D077;" vertex="1" parent="1">
          <mxGeometry x="2878" y="680" width="20" height="40" as="geometry" />
        </mxCell>
        <mxCell id="MwSIgb_RVXlyAXQ-AR61-243" value="" style="rounded=0;whiteSpace=wrap;html=1;fillColor=#97D077;" vertex="1" parent="1">
          <mxGeometry x="2896" y="640" width="20" height="40" as="geometry" />
        </mxCell>
        <mxCell id="MwSIgb_RVXlyAXQ-AR61-244" value="" style="rounded=0;whiteSpace=wrap;html=1;fillColor=#97D077;" vertex="1" parent="1">
          <mxGeometry x="2896" y="680" width="20" height="40" as="geometry" />
        </mxCell>
        <mxCell id="MwSIgb_RVXlyAXQ-AR61-245" value="" style="rounded=0;whiteSpace=wrap;html=1;fillColor=#97D077;" vertex="1" parent="1">
          <mxGeometry x="2916" y="640" width="20" height="40" as="geometry" />
        </mxCell>
        <mxCell id="MwSIgb_RVXlyAXQ-AR61-246" value="" style="rounded=0;whiteSpace=wrap;html=1;fillColor=#97D077;" vertex="1" parent="1">
          <mxGeometry x="2916" y="680" width="20" height="40" as="geometry" />
        </mxCell>
        <mxCell id="MwSIgb_RVXlyAXQ-AR61-247" value="" style="rounded=0;whiteSpace=wrap;html=1;fillColor=#97D077;" vertex="1" parent="1">
          <mxGeometry x="2936" y="640" width="20" height="40" as="geometry" />
        </mxCell>
        <mxCell id="MwSIgb_RVXlyAXQ-AR61-248" value="" style="rounded=0;whiteSpace=wrap;html=1;fillColor=#97D077;" vertex="1" parent="1">
          <mxGeometry x="2936" y="680" width="20" height="40" as="geometry" />
        </mxCell>
        <mxCell id="MwSIgb_RVXlyAXQ-AR61-249" value="" style="rounded=0;whiteSpace=wrap;html=1;fillColor=#97D077;" vertex="1" parent="1">
          <mxGeometry x="2956" y="640" width="20" height="40" as="geometry" />
        </mxCell>
        <mxCell id="MwSIgb_RVXlyAXQ-AR61-250" value="" style="rounded=0;whiteSpace=wrap;html=1;fillColor=#97D077;" vertex="1" parent="1">
          <mxGeometry x="2956" y="680" width="20" height="40" as="geometry" />
        </mxCell>
        <mxCell id="MwSIgb_RVXlyAXQ-AR61-251" value="Term" style="rounded=0;whiteSpace=wrap;html=1;fillColor=#66B2FF;" vertex="1" parent="1">
          <mxGeometry x="2600" y="640" width="60" height="40" as="geometry" />
        </mxCell>
        <mxCell id="MwSIgb_RVXlyAXQ-AR61-252" value="Index" style="rounded=0;whiteSpace=wrap;html=1;fillColor=#66B2FF;" vertex="1" parent="1">
          <mxGeometry x="2600" y="680" width="60" height="40" as="geometry" />
        </mxCell>
        <mxCell id="MwSIgb_RVXlyAXQ-AR61-253" value="" style="rounded=0;whiteSpace=wrap;html=1;fillColor=#97D077;" vertex="1" parent="1">
          <mxGeometry x="2660" y="720" width="20" height="40" as="geometry" />
        </mxCell>
        <mxCell id="MwSIgb_RVXlyAXQ-AR61-254" value="" style="rounded=0;whiteSpace=wrap;html=1;fillColor=#97D077;" vertex="1" parent="1">
          <mxGeometry x="2660" y="760" width="20" height="40" as="geometry" />
        </mxCell>
        <mxCell id="MwSIgb_RVXlyAXQ-AR61-255" value="" style="rounded=0;whiteSpace=wrap;html=1;fillColor=#97D077;" vertex="1" parent="1">
          <mxGeometry x="2680" y="720" width="20" height="40" as="geometry" />
        </mxCell>
        <mxCell id="MwSIgb_RVXlyAXQ-AR61-256" value="" style="rounded=0;whiteSpace=wrap;html=1;fillColor=#97D077;" vertex="1" parent="1">
          <mxGeometry x="2680" y="760" width="20" height="40" as="geometry" />
        </mxCell>
        <mxCell id="MwSIgb_RVXlyAXQ-AR61-257" value="" style="rounded=0;whiteSpace=wrap;html=1;fillColor=#97D077;" vertex="1" parent="1">
          <mxGeometry x="2700" y="720" width="20" height="40" as="geometry" />
        </mxCell>
        <mxCell id="MwSIgb_RVXlyAXQ-AR61-258" value="" style="rounded=0;whiteSpace=wrap;html=1;fillColor=#97D077;" vertex="1" parent="1">
          <mxGeometry x="2700" y="760" width="20" height="40" as="geometry" />
        </mxCell>
        <mxCell id="MwSIgb_RVXlyAXQ-AR61-259" value="" style="rounded=0;whiteSpace=wrap;html=1;fillColor=#97D077;" vertex="1" parent="1">
          <mxGeometry x="2720" y="720" width="20" height="40" as="geometry" />
        </mxCell>
        <mxCell id="MwSIgb_RVXlyAXQ-AR61-260" value="" style="rounded=0;whiteSpace=wrap;html=1;fillColor=#97D077;" vertex="1" parent="1">
          <mxGeometry x="2720" y="760" width="20" height="40" as="geometry" />
        </mxCell>
        <mxCell id="MwSIgb_RVXlyAXQ-AR61-261" value="" style="rounded=0;whiteSpace=wrap;html=1;fillColor=#97D077;" vertex="1" parent="1">
          <mxGeometry x="2738" y="720" width="20" height="40" as="geometry" />
        </mxCell>
        <mxCell id="MwSIgb_RVXlyAXQ-AR61-262" value="" style="rounded=0;whiteSpace=wrap;html=1;fillColor=#97D077;" vertex="1" parent="1">
          <mxGeometry x="2738" y="760" width="20" height="40" as="geometry" />
        </mxCell>
        <mxCell id="MwSIgb_RVXlyAXQ-AR61-263" value="" style="rounded=0;whiteSpace=wrap;html=1;fillColor=#97D077;" vertex="1" parent="1">
          <mxGeometry x="2758" y="720" width="20" height="40" as="geometry" />
        </mxCell>
        <mxCell id="MwSIgb_RVXlyAXQ-AR61-264" value="" style="rounded=0;whiteSpace=wrap;html=1;fillColor=#97D077;" vertex="1" parent="1">
          <mxGeometry x="2758" y="760" width="20" height="40" as="geometry" />
        </mxCell>
        <mxCell id="MwSIgb_RVXlyAXQ-AR61-265" value="" style="rounded=0;whiteSpace=wrap;html=1;fillColor=#97D077;" vertex="1" parent="1">
          <mxGeometry x="2778" y="720" width="20" height="40" as="geometry" />
        </mxCell>
        <mxCell id="MwSIgb_RVXlyAXQ-AR61-266" value="" style="rounded=0;whiteSpace=wrap;html=1;fillColor=#97D077;" vertex="1" parent="1">
          <mxGeometry x="2778" y="760" width="20" height="40" as="geometry" />
        </mxCell>
        <mxCell id="MwSIgb_RVXlyAXQ-AR61-267" value="" style="rounded=0;whiteSpace=wrap;html=1;fillColor=#97D077;" vertex="1" parent="1">
          <mxGeometry x="2798" y="720" width="20" height="40" as="geometry" />
        </mxCell>
        <mxCell id="MwSIgb_RVXlyAXQ-AR61-268" value="" style="rounded=0;whiteSpace=wrap;html=1;fillColor=#97D077;" vertex="1" parent="1">
          <mxGeometry x="2798" y="760" width="20" height="40" as="geometry" />
        </mxCell>
        <mxCell id="MwSIgb_RVXlyAXQ-AR61-269" value="" style="rounded=0;whiteSpace=wrap;html=1;fillColor=#97D077;" vertex="1" parent="1">
          <mxGeometry x="2818" y="720" width="20" height="40" as="geometry" />
        </mxCell>
        <mxCell id="MwSIgb_RVXlyAXQ-AR61-270" value="" style="rounded=0;whiteSpace=wrap;html=1;fillColor=#97D077;" vertex="1" parent="1">
          <mxGeometry x="2818" y="760" width="20" height="40" as="geometry" />
        </mxCell>
        <mxCell id="MwSIgb_RVXlyAXQ-AR61-271" value="" style="rounded=0;whiteSpace=wrap;html=1;fillColor=#97D077;" vertex="1" parent="1">
          <mxGeometry x="2838" y="720" width="20" height="40" as="geometry" />
        </mxCell>
        <mxCell id="MwSIgb_RVXlyAXQ-AR61-272" value="" style="rounded=0;whiteSpace=wrap;html=1;fillColor=#97D077;" vertex="1" parent="1">
          <mxGeometry x="2838" y="760" width="20" height="40" as="geometry" />
        </mxCell>
        <mxCell id="MwSIgb_RVXlyAXQ-AR61-273" value="" style="rounded=0;whiteSpace=wrap;html=1;fillColor=#97D077;" vertex="1" parent="1">
          <mxGeometry x="2858" y="720" width="20" height="40" as="geometry" />
        </mxCell>
        <mxCell id="MwSIgb_RVXlyAXQ-AR61-274" value="" style="rounded=0;whiteSpace=wrap;html=1;fillColor=#97D077;" vertex="1" parent="1">
          <mxGeometry x="2858" y="760" width="20" height="40" as="geometry" />
        </mxCell>
        <mxCell id="MwSIgb_RVXlyAXQ-AR61-275" value="" style="rounded=0;whiteSpace=wrap;html=1;fillColor=#97D077;" vertex="1" parent="1">
          <mxGeometry x="2878" y="720" width="20" height="40" as="geometry" />
        </mxCell>
        <mxCell id="MwSIgb_RVXlyAXQ-AR61-276" value="" style="rounded=0;whiteSpace=wrap;html=1;fillColor=#97D077;" vertex="1" parent="1">
          <mxGeometry x="2878" y="760" width="20" height="40" as="geometry" />
        </mxCell>
        <mxCell id="MwSIgb_RVXlyAXQ-AR61-277" value="" style="rounded=0;whiteSpace=wrap;html=1;fillColor=#97D077;" vertex="1" parent="1">
          <mxGeometry x="2896" y="720" width="20" height="40" as="geometry" />
        </mxCell>
        <mxCell id="MwSIgb_RVXlyAXQ-AR61-278" value="" style="rounded=0;whiteSpace=wrap;html=1;fillColor=#97D077;" vertex="1" parent="1">
          <mxGeometry x="2896" y="760" width="20" height="40" as="geometry" />
        </mxCell>
        <mxCell id="MwSIgb_RVXlyAXQ-AR61-279" value="" style="rounded=0;whiteSpace=wrap;html=1;fillColor=#97D077;" vertex="1" parent="1">
          <mxGeometry x="2916" y="720" width="20" height="40" as="geometry" />
        </mxCell>
        <mxCell id="MwSIgb_RVXlyAXQ-AR61-280" value="" style="rounded=0;whiteSpace=wrap;html=1;fillColor=#97D077;" vertex="1" parent="1">
          <mxGeometry x="2916" y="760" width="20" height="40" as="geometry" />
        </mxCell>
        <mxCell id="MwSIgb_RVXlyAXQ-AR61-281" value="" style="rounded=0;whiteSpace=wrap;html=1;fillColor=#97D077;" vertex="1" parent="1">
          <mxGeometry x="2936" y="720" width="20" height="40" as="geometry" />
        </mxCell>
        <mxCell id="MwSIgb_RVXlyAXQ-AR61-282" value="" style="rounded=0;whiteSpace=wrap;html=1;fillColor=#97D077;" vertex="1" parent="1">
          <mxGeometry x="2936" y="760" width="20" height="40" as="geometry" />
        </mxCell>
        <mxCell id="MwSIgb_RVXlyAXQ-AR61-283" value="" style="rounded=0;whiteSpace=wrap;html=1;fillColor=#97D077;" vertex="1" parent="1">
          <mxGeometry x="2956" y="720" width="20" height="40" as="geometry" />
        </mxCell>
        <mxCell id="MwSIgb_RVXlyAXQ-AR61-284" value="" style="rounded=0;whiteSpace=wrap;html=1;fillColor=#97D077;" vertex="1" parent="1">
          <mxGeometry x="2956" y="760" width="20" height="40" as="geometry" />
        </mxCell>
        <mxCell id="MwSIgb_RVXlyAXQ-AR61-285" value="Term" style="rounded=0;whiteSpace=wrap;html=1;fillColor=#66B2FF;" vertex="1" parent="1">
          <mxGeometry x="2600" y="720" width="60" height="40" as="geometry" />
        </mxCell>
        <mxCell id="MwSIgb_RVXlyAXQ-AR61-286" value="Index" style="rounded=0;whiteSpace=wrap;html=1;fillColor=#66B2FF;" vertex="1" parent="1">
          <mxGeometry x="2600" y="760" width="60" height="40" as="geometry" />
        </mxCell>
        <mxCell id="MwSIgb_RVXlyAXQ-AR61-287" value="Term" style="rounded=0;whiteSpace=wrap;html=1;fillColor=#66B2FF;" vertex="1" parent="1">
          <mxGeometry x="2792" y="-170" width="60" height="40" as="geometry" />
        </mxCell>
        <mxCell id="MwSIgb_RVXlyAXQ-AR61-288" value="Index" style="rounded=0;whiteSpace=wrap;html=1;fillColor=#66B2FF;" vertex="1" parent="1">
          <mxGeometry x="2792" y="-130" width="60" height="40" as="geometry" />
        </mxCell>
        <mxCell id="MwSIgb_RVXlyAXQ-AR61-289" value="5" style="rounded=0;whiteSpace=wrap;html=1;fillColor=#97D077;" vertex="1" parent="1">
          <mxGeometry x="2852" y="-170" width="20" height="40" as="geometry" />
        </mxCell>
        <mxCell id="MwSIgb_RVXlyAXQ-AR61-290" value="5" style="rounded=0;whiteSpace=wrap;html=1;fillColor=#97D077;" vertex="1" parent="1">
          <mxGeometry x="2852" y="-130" width="20" height="40" as="geometry" />
        </mxCell>
        <mxCell id="MwSIgb_RVXlyAXQ-AR61-292" value="0" style="rounded=0;whiteSpace=wrap;html=1;fillColor=#97D077;" vertex="1" parent="1">
          <mxGeometry x="2872" y="-130" width="20" height="40" as="geometry" />
        </mxCell>
        <mxCell id="MwSIgb_RVXlyAXQ-AR61-293" value="0" style="rounded=0;whiteSpace=wrap;html=1;fillColor=#97D077;" vertex="1" parent="1">
          <mxGeometry x="2892" y="-170" width="20" height="40" as="geometry" />
        </mxCell>
        <mxCell id="MwSIgb_RVXlyAXQ-AR61-294" value="0" style="rounded=0;whiteSpace=wrap;html=1;fillColor=#97D077;" vertex="1" parent="1">
          <mxGeometry x="2892" y="-130" width="20" height="40" as="geometry" />
        </mxCell>
        <mxCell id="MwSIgb_RVXlyAXQ-AR61-295" value="0" style="rounded=0;whiteSpace=wrap;html=1;fillColor=#97D077;" vertex="1" parent="1">
          <mxGeometry x="2912" y="-170" width="20" height="40" as="geometry" />
        </mxCell>
        <mxCell id="MwSIgb_RVXlyAXQ-AR61-296" value="0" style="rounded=0;whiteSpace=wrap;html=1;fillColor=#97D077;" vertex="1" parent="1">
          <mxGeometry x="2912" y="-130" width="20" height="40" as="geometry" />
        </mxCell>
        <mxCell id="MwSIgb_RVXlyAXQ-AR61-297" value="" style="rounded=0;whiteSpace=wrap;html=1;fillColor=#97D077;" vertex="1" parent="1">
          <mxGeometry x="2930" y="-170" width="20" height="40" as="geometry" />
        </mxCell>
        <mxCell id="MwSIgb_RVXlyAXQ-AR61-298" value="" style="rounded=0;whiteSpace=wrap;html=1;fillColor=#97D077;" vertex="1" parent="1">
          <mxGeometry x="2930" y="-130" width="20" height="40" as="geometry" />
        </mxCell>
        <mxCell id="MwSIgb_RVXlyAXQ-AR61-299" value="" style="rounded=0;whiteSpace=wrap;html=1;fillColor=#97D077;" vertex="1" parent="1">
          <mxGeometry x="2950" y="-170" width="20" height="40" as="geometry" />
        </mxCell>
        <mxCell id="MwSIgb_RVXlyAXQ-AR61-300" value="" style="rounded=0;whiteSpace=wrap;html=1;fillColor=#97D077;" vertex="1" parent="1">
          <mxGeometry x="2950" y="-130" width="20" height="40" as="geometry" />
        </mxCell>
        <mxCell id="MwSIgb_RVXlyAXQ-AR61-301" value="" style="rounded=0;whiteSpace=wrap;html=1;fillColor=#97D077;" vertex="1" parent="1">
          <mxGeometry x="2970" y="-170" width="20" height="40" as="geometry" />
        </mxCell>
        <mxCell id="MwSIgb_RVXlyAXQ-AR61-302" value="" style="rounded=0;whiteSpace=wrap;html=1;fillColor=#97D077;" vertex="1" parent="1">
          <mxGeometry x="2970" y="-130" width="20" height="40" as="geometry" />
        </mxCell>
        <mxCell id="MwSIgb_RVXlyAXQ-AR61-303" value="" style="rounded=0;whiteSpace=wrap;html=1;fillColor=#97D077;" vertex="1" parent="1">
          <mxGeometry x="2990" y="-170" width="20" height="40" as="geometry" />
        </mxCell>
        <mxCell id="MwSIgb_RVXlyAXQ-AR61-304" value="" style="rounded=0;whiteSpace=wrap;html=1;fillColor=#97D077;" vertex="1" parent="1">
          <mxGeometry x="2990" y="-130" width="20" height="40" as="geometry" />
        </mxCell>
        <mxCell id="MwSIgb_RVXlyAXQ-AR61-305" value="" style="rounded=0;whiteSpace=wrap;html=1;fillColor=#97D077;" vertex="1" parent="1">
          <mxGeometry x="3010" y="-170" width="20" height="40" as="geometry" />
        </mxCell>
        <mxCell id="MwSIgb_RVXlyAXQ-AR61-306" value="" style="rounded=0;whiteSpace=wrap;html=1;fillColor=#97D077;" vertex="1" parent="1">
          <mxGeometry x="3010" y="-130" width="20" height="40" as="geometry" />
        </mxCell>
        <mxCell id="MwSIgb_RVXlyAXQ-AR61-307" value="" style="rounded=0;whiteSpace=wrap;html=1;fillColor=#97D077;" vertex="1" parent="1">
          <mxGeometry x="3030" y="-170" width="20" height="40" as="geometry" />
        </mxCell>
        <mxCell id="MwSIgb_RVXlyAXQ-AR61-308" value="" style="rounded=0;whiteSpace=wrap;html=1;fillColor=#97D077;" vertex="1" parent="1">
          <mxGeometry x="3030" y="-130" width="20" height="40" as="geometry" />
        </mxCell>
        <mxCell id="MwSIgb_RVXlyAXQ-AR61-309" value="" style="rounded=0;whiteSpace=wrap;html=1;fillColor=#97D077;" vertex="1" parent="1">
          <mxGeometry x="3050" y="-170" width="20" height="40" as="geometry" />
        </mxCell>
        <mxCell id="MwSIgb_RVXlyAXQ-AR61-310" value="" style="rounded=0;whiteSpace=wrap;html=1;fillColor=#97D077;" vertex="1" parent="1">
          <mxGeometry x="3050" y="-130" width="20" height="40" as="geometry" />
        </mxCell>
        <mxCell id="MwSIgb_RVXlyAXQ-AR61-311" value="" style="rounded=0;whiteSpace=wrap;html=1;fillColor=#97D077;" vertex="1" parent="1">
          <mxGeometry x="3070" y="-170" width="20" height="40" as="geometry" />
        </mxCell>
        <mxCell id="MwSIgb_RVXlyAXQ-AR61-312" value="" style="rounded=0;whiteSpace=wrap;html=1;fillColor=#97D077;" vertex="1" parent="1">
          <mxGeometry x="3070" y="-130" width="20" height="40" as="geometry" />
        </mxCell>
        <mxCell id="MwSIgb_RVXlyAXQ-AR61-313" value="" style="rounded=0;whiteSpace=wrap;html=1;fillColor=#97D077;" vertex="1" parent="1">
          <mxGeometry x="3088" y="-170" width="20" height="40" as="geometry" />
        </mxCell>
        <mxCell id="MwSIgb_RVXlyAXQ-AR61-314" value="" style="rounded=0;whiteSpace=wrap;html=1;fillColor=#97D077;" vertex="1" parent="1">
          <mxGeometry x="3088" y="-130" width="20" height="40" as="geometry" />
        </mxCell>
        <mxCell id="MwSIgb_RVXlyAXQ-AR61-315" value="" style="rounded=0;whiteSpace=wrap;html=1;fillColor=#97D077;" vertex="1" parent="1">
          <mxGeometry x="3108" y="-170" width="20" height="40" as="geometry" />
        </mxCell>
        <mxCell id="MwSIgb_RVXlyAXQ-AR61-316" value="" style="rounded=0;whiteSpace=wrap;html=1;fillColor=#97D077;" vertex="1" parent="1">
          <mxGeometry x="3108" y="-130" width="20" height="40" as="geometry" />
        </mxCell>
        <mxCell id="MwSIgb_RVXlyAXQ-AR61-317" value="" style="rounded=0;whiteSpace=wrap;html=1;fillColor=#97D077;" vertex="1" parent="1">
          <mxGeometry x="3128" y="-170" width="20" height="40" as="geometry" />
        </mxCell>
        <mxCell id="MwSIgb_RVXlyAXQ-AR61-318" value="" style="rounded=0;whiteSpace=wrap;html=1;fillColor=#97D077;" vertex="1" parent="1">
          <mxGeometry x="3128" y="-130" width="20" height="40" as="geometry" />
        </mxCell>
        <mxCell id="MwSIgb_RVXlyAXQ-AR61-319" value="" style="rounded=0;whiteSpace=wrap;html=1;fillColor=#97D077;" vertex="1" parent="1">
          <mxGeometry x="3148" y="-170" width="20" height="40" as="geometry" />
        </mxCell>
        <mxCell id="MwSIgb_RVXlyAXQ-AR61-320" value="" style="rounded=0;whiteSpace=wrap;html=1;fillColor=#97D077;" vertex="1" parent="1">
          <mxGeometry x="3148" y="-130" width="20" height="40" as="geometry" />
        </mxCell>
        <mxCell id="MwSIgb_RVXlyAXQ-AR61-321" value="" style="rounded=0;whiteSpace=wrap;html=1;fillColor=#97D077;" vertex="1" parent="1">
          <mxGeometry x="2852" y="-90" width="20" height="40" as="geometry" />
        </mxCell>
        <mxCell id="MwSIgb_RVXlyAXQ-AR61-322" value="" style="rounded=0;whiteSpace=wrap;html=1;fillColor=#97D077;" vertex="1" parent="1">
          <mxGeometry x="2852" y="-50" width="20" height="40" as="geometry" />
        </mxCell>
        <mxCell id="MwSIgb_RVXlyAXQ-AR61-323" value="" style="rounded=0;whiteSpace=wrap;html=1;fillColor=#97D077;" vertex="1" parent="1">
          <mxGeometry x="2872" y="-90" width="20" height="40" as="geometry" />
        </mxCell>
        <mxCell id="MwSIgb_RVXlyAXQ-AR61-324" value="" style="rounded=0;whiteSpace=wrap;html=1;fillColor=#97D077;" vertex="1" parent="1">
          <mxGeometry x="2872" y="-50" width="20" height="40" as="geometry" />
        </mxCell>
        <mxCell id="MwSIgb_RVXlyAXQ-AR61-325" value="" style="rounded=0;whiteSpace=wrap;html=1;fillColor=#97D077;" vertex="1" parent="1">
          <mxGeometry x="2892" y="-90" width="20" height="40" as="geometry" />
        </mxCell>
        <mxCell id="MwSIgb_RVXlyAXQ-AR61-326" value="" style="rounded=0;whiteSpace=wrap;html=1;fillColor=#97D077;" vertex="1" parent="1">
          <mxGeometry x="2892" y="-50" width="20" height="40" as="geometry" />
        </mxCell>
        <mxCell id="MwSIgb_RVXlyAXQ-AR61-327" value="" style="rounded=0;whiteSpace=wrap;html=1;fillColor=#97D077;" vertex="1" parent="1">
          <mxGeometry x="2912" y="-90" width="20" height="40" as="geometry" />
        </mxCell>
        <mxCell id="MwSIgb_RVXlyAXQ-AR61-328" value="" style="rounded=0;whiteSpace=wrap;html=1;fillColor=#97D077;" vertex="1" parent="1">
          <mxGeometry x="2912" y="-50" width="20" height="40" as="geometry" />
        </mxCell>
        <mxCell id="MwSIgb_RVXlyAXQ-AR61-329" value="" style="rounded=0;whiteSpace=wrap;html=1;fillColor=#97D077;" vertex="1" parent="1">
          <mxGeometry x="2930" y="-90" width="20" height="40" as="geometry" />
        </mxCell>
        <mxCell id="MwSIgb_RVXlyAXQ-AR61-330" value="" style="rounded=0;whiteSpace=wrap;html=1;fillColor=#97D077;" vertex="1" parent="1">
          <mxGeometry x="2930" y="-50" width="20" height="40" as="geometry" />
        </mxCell>
        <mxCell id="MwSIgb_RVXlyAXQ-AR61-331" value="" style="rounded=0;whiteSpace=wrap;html=1;fillColor=#97D077;" vertex="1" parent="1">
          <mxGeometry x="2950" y="-90" width="20" height="40" as="geometry" />
        </mxCell>
        <mxCell id="MwSIgb_RVXlyAXQ-AR61-332" value="" style="rounded=0;whiteSpace=wrap;html=1;fillColor=#97D077;" vertex="1" parent="1">
          <mxGeometry x="2950" y="-50" width="20" height="40" as="geometry" />
        </mxCell>
        <mxCell id="MwSIgb_RVXlyAXQ-AR61-333" value="" style="rounded=0;whiteSpace=wrap;html=1;fillColor=#97D077;" vertex="1" parent="1">
          <mxGeometry x="2970" y="-90" width="20" height="40" as="geometry" />
        </mxCell>
        <mxCell id="MwSIgb_RVXlyAXQ-AR61-334" value="" style="rounded=0;whiteSpace=wrap;html=1;fillColor=#97D077;" vertex="1" parent="1">
          <mxGeometry x="2970" y="-50" width="20" height="40" as="geometry" />
        </mxCell>
        <mxCell id="MwSIgb_RVXlyAXQ-AR61-335" value="" style="rounded=0;whiteSpace=wrap;html=1;fillColor=#97D077;" vertex="1" parent="1">
          <mxGeometry x="2990" y="-90" width="20" height="40" as="geometry" />
        </mxCell>
        <mxCell id="MwSIgb_RVXlyAXQ-AR61-336" value="" style="rounded=0;whiteSpace=wrap;html=1;fillColor=#97D077;" vertex="1" parent="1">
          <mxGeometry x="2990" y="-50" width="20" height="40" as="geometry" />
        </mxCell>
        <mxCell id="MwSIgb_RVXlyAXQ-AR61-337" value="" style="rounded=0;whiteSpace=wrap;html=1;fillColor=#97D077;" vertex="1" parent="1">
          <mxGeometry x="3010" y="-90" width="20" height="40" as="geometry" />
        </mxCell>
        <mxCell id="MwSIgb_RVXlyAXQ-AR61-338" value="" style="rounded=0;whiteSpace=wrap;html=1;fillColor=#97D077;" vertex="1" parent="1">
          <mxGeometry x="3010" y="-50" width="20" height="40" as="geometry" />
        </mxCell>
        <mxCell id="MwSIgb_RVXlyAXQ-AR61-339" value="" style="rounded=0;whiteSpace=wrap;html=1;fillColor=#97D077;" vertex="1" parent="1">
          <mxGeometry x="3030" y="-90" width="20" height="40" as="geometry" />
        </mxCell>
        <mxCell id="MwSIgb_RVXlyAXQ-AR61-340" value="" style="rounded=0;whiteSpace=wrap;html=1;fillColor=#97D077;" vertex="1" parent="1">
          <mxGeometry x="3030" y="-50" width="20" height="40" as="geometry" />
        </mxCell>
        <mxCell id="MwSIgb_RVXlyAXQ-AR61-341" value="" style="rounded=0;whiteSpace=wrap;html=1;fillColor=#97D077;" vertex="1" parent="1">
          <mxGeometry x="3050" y="-90" width="20" height="40" as="geometry" />
        </mxCell>
        <mxCell id="MwSIgb_RVXlyAXQ-AR61-342" value="" style="rounded=0;whiteSpace=wrap;html=1;fillColor=#97D077;" vertex="1" parent="1">
          <mxGeometry x="3050" y="-50" width="20" height="40" as="geometry" />
        </mxCell>
        <mxCell id="MwSIgb_RVXlyAXQ-AR61-343" value="" style="rounded=0;whiteSpace=wrap;html=1;fillColor=#97D077;" vertex="1" parent="1">
          <mxGeometry x="3070" y="-90" width="20" height="40" as="geometry" />
        </mxCell>
        <mxCell id="MwSIgb_RVXlyAXQ-AR61-344" value="" style="rounded=0;whiteSpace=wrap;html=1;fillColor=#97D077;" vertex="1" parent="1">
          <mxGeometry x="3070" y="-50" width="20" height="40" as="geometry" />
        </mxCell>
        <mxCell id="MwSIgb_RVXlyAXQ-AR61-345" value="" style="rounded=0;whiteSpace=wrap;html=1;fillColor=#97D077;" vertex="1" parent="1">
          <mxGeometry x="3088" y="-90" width="20" height="40" as="geometry" />
        </mxCell>
        <mxCell id="MwSIgb_RVXlyAXQ-AR61-346" value="" style="rounded=0;whiteSpace=wrap;html=1;fillColor=#97D077;" vertex="1" parent="1">
          <mxGeometry x="3088" y="-50" width="20" height="40" as="geometry" />
        </mxCell>
        <mxCell id="MwSIgb_RVXlyAXQ-AR61-347" value="" style="rounded=0;whiteSpace=wrap;html=1;fillColor=#97D077;" vertex="1" parent="1">
          <mxGeometry x="3108" y="-90" width="20" height="40" as="geometry" />
        </mxCell>
        <mxCell id="MwSIgb_RVXlyAXQ-AR61-348" value="" style="rounded=0;whiteSpace=wrap;html=1;fillColor=#97D077;" vertex="1" parent="1">
          <mxGeometry x="3108" y="-50" width="20" height="40" as="geometry" />
        </mxCell>
        <mxCell id="MwSIgb_RVXlyAXQ-AR61-349" value="" style="rounded=0;whiteSpace=wrap;html=1;fillColor=#97D077;" vertex="1" parent="1">
          <mxGeometry x="3128" y="-90" width="20" height="40" as="geometry" />
        </mxCell>
        <mxCell id="MwSIgb_RVXlyAXQ-AR61-350" value="" style="rounded=0;whiteSpace=wrap;html=1;fillColor=#97D077;" vertex="1" parent="1">
          <mxGeometry x="3128" y="-50" width="20" height="40" as="geometry" />
        </mxCell>
        <mxCell id="MwSIgb_RVXlyAXQ-AR61-351" value="" style="rounded=0;whiteSpace=wrap;html=1;fillColor=#97D077;" vertex="1" parent="1">
          <mxGeometry x="3148" y="-90" width="20" height="40" as="geometry" />
        </mxCell>
        <mxCell id="MwSIgb_RVXlyAXQ-AR61-352" value="" style="rounded=0;whiteSpace=wrap;html=1;fillColor=#97D077;" vertex="1" parent="1">
          <mxGeometry x="3148" y="-50" width="20" height="40" as="geometry" />
        </mxCell>
        <mxCell id="MwSIgb_RVXlyAXQ-AR61-353" value="Term" style="rounded=0;whiteSpace=wrap;html=1;fillColor=#66B2FF;" vertex="1" parent="1">
          <mxGeometry x="2792" y="-90" width="60" height="40" as="geometry" />
        </mxCell>
        <mxCell id="MwSIgb_RVXlyAXQ-AR61-354" value="Index" style="rounded=0;whiteSpace=wrap;html=1;fillColor=#66B2FF;" vertex="1" parent="1">
          <mxGeometry x="2792" y="-50" width="60" height="40" as="geometry" />
        </mxCell>
        <mxCell id="MwSIgb_RVXlyAXQ-AR61-355" value="" style="rounded=0;whiteSpace=wrap;html=1;fillColor=#97D077;" vertex="1" parent="1">
          <mxGeometry x="2852" y="-10" width="20" height="40" as="geometry" />
        </mxCell>
        <mxCell id="MwSIgb_RVXlyAXQ-AR61-356" value="" style="rounded=0;whiteSpace=wrap;html=1;fillColor=#97D077;" vertex="1" parent="1">
          <mxGeometry x="2852" y="30" width="20" height="40" as="geometry" />
        </mxCell>
        <mxCell id="MwSIgb_RVXlyAXQ-AR61-357" value="" style="rounded=0;whiteSpace=wrap;html=1;fillColor=#97D077;" vertex="1" parent="1">
          <mxGeometry x="2872" y="-10" width="20" height="40" as="geometry" />
        </mxCell>
        <mxCell id="MwSIgb_RVXlyAXQ-AR61-358" value="" style="rounded=0;whiteSpace=wrap;html=1;fillColor=#97D077;" vertex="1" parent="1">
          <mxGeometry x="2872" y="30" width="20" height="40" as="geometry" />
        </mxCell>
        <mxCell id="MwSIgb_RVXlyAXQ-AR61-359" value="" style="rounded=0;whiteSpace=wrap;html=1;fillColor=#97D077;" vertex="1" parent="1">
          <mxGeometry x="2892" y="-10" width="20" height="40" as="geometry" />
        </mxCell>
        <mxCell id="MwSIgb_RVXlyAXQ-AR61-360" value="" style="rounded=0;whiteSpace=wrap;html=1;fillColor=#97D077;" vertex="1" parent="1">
          <mxGeometry x="2892" y="30" width="20" height="40" as="geometry" />
        </mxCell>
        <mxCell id="MwSIgb_RVXlyAXQ-AR61-361" value="" style="rounded=0;whiteSpace=wrap;html=1;fillColor=#97D077;" vertex="1" parent="1">
          <mxGeometry x="2912" y="-10" width="20" height="40" as="geometry" />
        </mxCell>
        <mxCell id="MwSIgb_RVXlyAXQ-AR61-362" value="" style="rounded=0;whiteSpace=wrap;html=1;fillColor=#97D077;" vertex="1" parent="1">
          <mxGeometry x="2912" y="30" width="20" height="40" as="geometry" />
        </mxCell>
        <mxCell id="MwSIgb_RVXlyAXQ-AR61-363" value="" style="rounded=0;whiteSpace=wrap;html=1;fillColor=#97D077;" vertex="1" parent="1">
          <mxGeometry x="2930" y="-10" width="20" height="40" as="geometry" />
        </mxCell>
        <mxCell id="MwSIgb_RVXlyAXQ-AR61-364" value="" style="rounded=0;whiteSpace=wrap;html=1;fillColor=#97D077;" vertex="1" parent="1">
          <mxGeometry x="2930" y="30" width="20" height="40" as="geometry" />
        </mxCell>
        <mxCell id="MwSIgb_RVXlyAXQ-AR61-365" value="" style="rounded=0;whiteSpace=wrap;html=1;fillColor=#97D077;" vertex="1" parent="1">
          <mxGeometry x="2950" y="-10" width="20" height="40" as="geometry" />
        </mxCell>
        <mxCell id="MwSIgb_RVXlyAXQ-AR61-366" value="" style="rounded=0;whiteSpace=wrap;html=1;fillColor=#97D077;" vertex="1" parent="1">
          <mxGeometry x="2950" y="30" width="20" height="40" as="geometry" />
        </mxCell>
        <mxCell id="MwSIgb_RVXlyAXQ-AR61-367" value="" style="rounded=0;whiteSpace=wrap;html=1;fillColor=#97D077;" vertex="1" parent="1">
          <mxGeometry x="2970" y="-10" width="20" height="40" as="geometry" />
        </mxCell>
        <mxCell id="MwSIgb_RVXlyAXQ-AR61-368" value="" style="rounded=0;whiteSpace=wrap;html=1;fillColor=#97D077;" vertex="1" parent="1">
          <mxGeometry x="2970" y="30" width="20" height="40" as="geometry" />
        </mxCell>
        <mxCell id="MwSIgb_RVXlyAXQ-AR61-369" value="" style="rounded=0;whiteSpace=wrap;html=1;fillColor=#97D077;" vertex="1" parent="1">
          <mxGeometry x="2990" y="-10" width="20" height="40" as="geometry" />
        </mxCell>
        <mxCell id="MwSIgb_RVXlyAXQ-AR61-370" value="" style="rounded=0;whiteSpace=wrap;html=1;fillColor=#97D077;" vertex="1" parent="1">
          <mxGeometry x="2990" y="30" width="20" height="40" as="geometry" />
        </mxCell>
        <mxCell id="MwSIgb_RVXlyAXQ-AR61-371" value="" style="rounded=0;whiteSpace=wrap;html=1;fillColor=#97D077;" vertex="1" parent="1">
          <mxGeometry x="3010" y="-10" width="20" height="40" as="geometry" />
        </mxCell>
        <mxCell id="MwSIgb_RVXlyAXQ-AR61-372" value="" style="rounded=0;whiteSpace=wrap;html=1;fillColor=#97D077;" vertex="1" parent="1">
          <mxGeometry x="3010" y="30" width="20" height="40" as="geometry" />
        </mxCell>
        <mxCell id="MwSIgb_RVXlyAXQ-AR61-373" value="" style="rounded=0;whiteSpace=wrap;html=1;fillColor=#97D077;" vertex="1" parent="1">
          <mxGeometry x="3030" y="-10" width="20" height="40" as="geometry" />
        </mxCell>
        <mxCell id="MwSIgb_RVXlyAXQ-AR61-374" value="" style="rounded=0;whiteSpace=wrap;html=1;fillColor=#97D077;" vertex="1" parent="1">
          <mxGeometry x="3030" y="30" width="20" height="40" as="geometry" />
        </mxCell>
        <mxCell id="MwSIgb_RVXlyAXQ-AR61-375" value="" style="rounded=0;whiteSpace=wrap;html=1;fillColor=#97D077;" vertex="1" parent="1">
          <mxGeometry x="3050" y="-10" width="20" height="40" as="geometry" />
        </mxCell>
        <mxCell id="MwSIgb_RVXlyAXQ-AR61-376" value="" style="rounded=0;whiteSpace=wrap;html=1;fillColor=#97D077;" vertex="1" parent="1">
          <mxGeometry x="3050" y="30" width="20" height="40" as="geometry" />
        </mxCell>
        <mxCell id="MwSIgb_RVXlyAXQ-AR61-377" value="" style="rounded=0;whiteSpace=wrap;html=1;fillColor=#97D077;" vertex="1" parent="1">
          <mxGeometry x="3070" y="-10" width="20" height="40" as="geometry" />
        </mxCell>
        <mxCell id="MwSIgb_RVXlyAXQ-AR61-378" value="" style="rounded=0;whiteSpace=wrap;html=1;fillColor=#97D077;" vertex="1" parent="1">
          <mxGeometry x="3070" y="30" width="20" height="40" as="geometry" />
        </mxCell>
        <mxCell id="MwSIgb_RVXlyAXQ-AR61-379" value="" style="rounded=0;whiteSpace=wrap;html=1;fillColor=#97D077;" vertex="1" parent="1">
          <mxGeometry x="3088" y="-10" width="20" height="40" as="geometry" />
        </mxCell>
        <mxCell id="MwSIgb_RVXlyAXQ-AR61-380" value="" style="rounded=0;whiteSpace=wrap;html=1;fillColor=#97D077;" vertex="1" parent="1">
          <mxGeometry x="3088" y="30" width="20" height="40" as="geometry" />
        </mxCell>
        <mxCell id="MwSIgb_RVXlyAXQ-AR61-381" value="" style="rounded=0;whiteSpace=wrap;html=1;fillColor=#97D077;" vertex="1" parent="1">
          <mxGeometry x="3108" y="-10" width="20" height="40" as="geometry" />
        </mxCell>
        <mxCell id="MwSIgb_RVXlyAXQ-AR61-382" value="" style="rounded=0;whiteSpace=wrap;html=1;fillColor=#97D077;" vertex="1" parent="1">
          <mxGeometry x="3108" y="30" width="20" height="40" as="geometry" />
        </mxCell>
        <mxCell id="MwSIgb_RVXlyAXQ-AR61-383" value="" style="rounded=0;whiteSpace=wrap;html=1;fillColor=#97D077;" vertex="1" parent="1">
          <mxGeometry x="3128" y="-10" width="20" height="40" as="geometry" />
        </mxCell>
        <mxCell id="MwSIgb_RVXlyAXQ-AR61-384" value="" style="rounded=0;whiteSpace=wrap;html=1;fillColor=#97D077;" vertex="1" parent="1">
          <mxGeometry x="3128" y="30" width="20" height="40" as="geometry" />
        </mxCell>
        <mxCell id="MwSIgb_RVXlyAXQ-AR61-385" value="" style="rounded=0;whiteSpace=wrap;html=1;fillColor=#97D077;" vertex="1" parent="1">
          <mxGeometry x="3148" y="-10" width="20" height="40" as="geometry" />
        </mxCell>
        <mxCell id="MwSIgb_RVXlyAXQ-AR61-386" value="" style="rounded=0;whiteSpace=wrap;html=1;fillColor=#97D077;" vertex="1" parent="1">
          <mxGeometry x="3148" y="30" width="20" height="40" as="geometry" />
        </mxCell>
        <mxCell id="MwSIgb_RVXlyAXQ-AR61-387" value="Term" style="rounded=0;whiteSpace=wrap;html=1;fillColor=#66B2FF;" vertex="1" parent="1">
          <mxGeometry x="2792" y="-10" width="60" height="40" as="geometry" />
        </mxCell>
        <mxCell id="MwSIgb_RVXlyAXQ-AR61-388" value="Index" style="rounded=0;whiteSpace=wrap;html=1;fillColor=#66B2FF;" vertex="1" parent="1">
          <mxGeometry x="2792" y="30" width="60" height="40" as="geometry" />
        </mxCell>
        <mxCell id="MwSIgb_RVXlyAXQ-AR61-389" value="Term" style="rounded=0;whiteSpace=wrap;html=1;fillColor=#66B2FF;" vertex="1" parent="1">
          <mxGeometry x="3040" y="560" width="60" height="40" as="geometry" />
        </mxCell>
        <mxCell id="MwSIgb_RVXlyAXQ-AR61-390" value="Index" style="rounded=0;whiteSpace=wrap;html=1;fillColor=#66B2FF;" vertex="1" parent="1">
          <mxGeometry x="3040" y="600" width="60" height="40" as="geometry" />
        </mxCell>
        <mxCell id="MwSIgb_RVXlyAXQ-AR61-391" value="5" style="rounded=0;whiteSpace=wrap;html=1;fillColor=#97D077;" vertex="1" parent="1">
          <mxGeometry x="3100" y="560" width="20" height="40" as="geometry" />
        </mxCell>
        <mxCell id="MwSIgb_RVXlyAXQ-AR61-392" value="5" style="rounded=0;whiteSpace=wrap;html=1;fillColor=#97D077;" vertex="1" parent="1">
          <mxGeometry x="3100" y="600" width="20" height="40" as="geometry" />
        </mxCell>
        <mxCell id="MwSIgb_RVXlyAXQ-AR61-393" value="7" style="rounded=0;whiteSpace=wrap;html=1;fillColor=#97D077;" vertex="1" parent="1">
          <mxGeometry x="3120" y="560" width="20" height="40" as="geometry" />
        </mxCell>
        <mxCell id="MwSIgb_RVXlyAXQ-AR61-394" value="6" style="rounded=0;whiteSpace=wrap;html=1;fillColor=#97D077;" vertex="1" parent="1">
          <mxGeometry x="3120" y="600" width="20" height="40" as="geometry" />
        </mxCell>
        <mxCell id="MwSIgb_RVXlyAXQ-AR61-395" value="9" style="rounded=0;whiteSpace=wrap;html=1;fillColor=#97D077;" vertex="1" parent="1">
          <mxGeometry x="3140" y="560" width="20" height="40" as="geometry" />
        </mxCell>
        <mxCell id="MwSIgb_RVXlyAXQ-AR61-396" value="7" style="rounded=0;whiteSpace=wrap;html=1;fillColor=#97D077;" vertex="1" parent="1">
          <mxGeometry x="3140" y="600" width="20" height="40" as="geometry" />
        </mxCell>
        <mxCell id="MwSIgb_RVXlyAXQ-AR61-397" value="11" style="rounded=0;whiteSpace=wrap;html=1;fillColor=#97D077;" vertex="1" parent="1">
          <mxGeometry x="3160" y="560" width="20" height="40" as="geometry" />
        </mxCell>
        <mxCell id="MwSIgb_RVXlyAXQ-AR61-398" value="8" style="rounded=0;whiteSpace=wrap;html=1;fillColor=#97D077;" vertex="1" parent="1">
          <mxGeometry x="3160" y="600" width="20" height="40" as="geometry" />
        </mxCell>
        <mxCell id="MwSIgb_RVXlyAXQ-AR61-399" value="" style="rounded=0;whiteSpace=wrap;html=1;fillColor=#97D077;" vertex="1" parent="1">
          <mxGeometry x="3178" y="560" width="20" height="40" as="geometry" />
        </mxCell>
        <mxCell id="MwSIgb_RVXlyAXQ-AR61-400" value="" style="rounded=0;whiteSpace=wrap;html=1;fillColor=#97D077;" vertex="1" parent="1">
          <mxGeometry x="3178" y="600" width="20" height="40" as="geometry" />
        </mxCell>
        <mxCell id="MwSIgb_RVXlyAXQ-AR61-401" value="" style="rounded=0;whiteSpace=wrap;html=1;fillColor=#97D077;" vertex="1" parent="1">
          <mxGeometry x="3198" y="560" width="20" height="40" as="geometry" />
        </mxCell>
        <mxCell id="MwSIgb_RVXlyAXQ-AR61-402" value="" style="rounded=0;whiteSpace=wrap;html=1;fillColor=#97D077;" vertex="1" parent="1">
          <mxGeometry x="3198" y="600" width="20" height="40" as="geometry" />
        </mxCell>
        <mxCell id="MwSIgb_RVXlyAXQ-AR61-403" value="" style="rounded=0;whiteSpace=wrap;html=1;fillColor=#97D077;" vertex="1" parent="1">
          <mxGeometry x="3218" y="560" width="20" height="40" as="geometry" />
        </mxCell>
        <mxCell id="MwSIgb_RVXlyAXQ-AR61-404" value="" style="rounded=0;whiteSpace=wrap;html=1;fillColor=#97D077;" vertex="1" parent="1">
          <mxGeometry x="3218" y="600" width="20" height="40" as="geometry" />
        </mxCell>
        <mxCell id="MwSIgb_RVXlyAXQ-AR61-405" value="" style="rounded=0;whiteSpace=wrap;html=1;fillColor=#97D077;" vertex="1" parent="1">
          <mxGeometry x="3238" y="560" width="20" height="40" as="geometry" />
        </mxCell>
        <mxCell id="MwSIgb_RVXlyAXQ-AR61-406" value="" style="rounded=0;whiteSpace=wrap;html=1;fillColor=#97D077;" vertex="1" parent="1">
          <mxGeometry x="3238" y="600" width="20" height="40" as="geometry" />
        </mxCell>
        <mxCell id="MwSIgb_RVXlyAXQ-AR61-407" value="" style="rounded=0;whiteSpace=wrap;html=1;fillColor=#97D077;" vertex="1" parent="1">
          <mxGeometry x="3258" y="560" width="20" height="40" as="geometry" />
        </mxCell>
        <mxCell id="MwSIgb_RVXlyAXQ-AR61-408" value="" style="rounded=0;whiteSpace=wrap;html=1;fillColor=#97D077;" vertex="1" parent="1">
          <mxGeometry x="3258" y="600" width="20" height="40" as="geometry" />
        </mxCell>
        <mxCell id="MwSIgb_RVXlyAXQ-AR61-409" value="" style="rounded=0;whiteSpace=wrap;html=1;fillColor=#97D077;" vertex="1" parent="1">
          <mxGeometry x="3278" y="560" width="20" height="40" as="geometry" />
        </mxCell>
        <mxCell id="MwSIgb_RVXlyAXQ-AR61-410" value="" style="rounded=0;whiteSpace=wrap;html=1;fillColor=#97D077;" vertex="1" parent="1">
          <mxGeometry x="3278" y="600" width="20" height="40" as="geometry" />
        </mxCell>
        <mxCell id="MwSIgb_RVXlyAXQ-AR61-411" value="" style="rounded=0;whiteSpace=wrap;html=1;fillColor=#97D077;" vertex="1" parent="1">
          <mxGeometry x="3298" y="560" width="20" height="40" as="geometry" />
        </mxCell>
        <mxCell id="MwSIgb_RVXlyAXQ-AR61-412" value="" style="rounded=0;whiteSpace=wrap;html=1;fillColor=#97D077;" vertex="1" parent="1">
          <mxGeometry x="3298" y="600" width="20" height="40" as="geometry" />
        </mxCell>
        <mxCell id="MwSIgb_RVXlyAXQ-AR61-413" value="" style="rounded=0;whiteSpace=wrap;html=1;fillColor=#97D077;" vertex="1" parent="1">
          <mxGeometry x="3318" y="560" width="20" height="40" as="geometry" />
        </mxCell>
        <mxCell id="MwSIgb_RVXlyAXQ-AR61-414" value="" style="rounded=0;whiteSpace=wrap;html=1;fillColor=#97D077;" vertex="1" parent="1">
          <mxGeometry x="3318" y="600" width="20" height="40" as="geometry" />
        </mxCell>
        <mxCell id="MwSIgb_RVXlyAXQ-AR61-415" value="" style="rounded=0;whiteSpace=wrap;html=1;fillColor=#97D077;" vertex="1" parent="1">
          <mxGeometry x="3336" y="560" width="20" height="40" as="geometry" />
        </mxCell>
        <mxCell id="MwSIgb_RVXlyAXQ-AR61-416" value="" style="rounded=0;whiteSpace=wrap;html=1;fillColor=#97D077;" vertex="1" parent="1">
          <mxGeometry x="3336" y="600" width="20" height="40" as="geometry" />
        </mxCell>
        <mxCell id="MwSIgb_RVXlyAXQ-AR61-417" value="" style="rounded=0;whiteSpace=wrap;html=1;fillColor=#97D077;" vertex="1" parent="1">
          <mxGeometry x="3356" y="560" width="20" height="40" as="geometry" />
        </mxCell>
        <mxCell id="MwSIgb_RVXlyAXQ-AR61-418" value="" style="rounded=0;whiteSpace=wrap;html=1;fillColor=#97D077;" vertex="1" parent="1">
          <mxGeometry x="3356" y="600" width="20" height="40" as="geometry" />
        </mxCell>
        <mxCell id="MwSIgb_RVXlyAXQ-AR61-419" value="" style="rounded=0;whiteSpace=wrap;html=1;fillColor=#97D077;" vertex="1" parent="1">
          <mxGeometry x="3376" y="560" width="20" height="40" as="geometry" />
        </mxCell>
        <mxCell id="MwSIgb_RVXlyAXQ-AR61-420" value="" style="rounded=0;whiteSpace=wrap;html=1;fillColor=#97D077;" vertex="1" parent="1">
          <mxGeometry x="3376" y="600" width="20" height="40" as="geometry" />
        </mxCell>
        <mxCell id="MwSIgb_RVXlyAXQ-AR61-421" value="" style="rounded=0;whiteSpace=wrap;html=1;fillColor=#97D077;" vertex="1" parent="1">
          <mxGeometry x="3396" y="560" width="20" height="40" as="geometry" />
        </mxCell>
        <mxCell id="MwSIgb_RVXlyAXQ-AR61-422" value="" style="rounded=0;whiteSpace=wrap;html=1;fillColor=#97D077;" vertex="1" parent="1">
          <mxGeometry x="3396" y="600" width="20" height="40" as="geometry" />
        </mxCell>
        <mxCell id="MwSIgb_RVXlyAXQ-AR61-423" value="" style="rounded=0;whiteSpace=wrap;html=1;fillColor=#97D077;" vertex="1" parent="1">
          <mxGeometry x="3100" y="640" width="20" height="40" as="geometry" />
        </mxCell>
        <mxCell id="MwSIgb_RVXlyAXQ-AR61-424" value="" style="rounded=0;whiteSpace=wrap;html=1;fillColor=#97D077;" vertex="1" parent="1">
          <mxGeometry x="3100" y="680" width="20" height="40" as="geometry" />
        </mxCell>
        <mxCell id="MwSIgb_RVXlyAXQ-AR61-425" value="" style="rounded=0;whiteSpace=wrap;html=1;fillColor=#97D077;" vertex="1" parent="1">
          <mxGeometry x="3120" y="640" width="20" height="40" as="geometry" />
        </mxCell>
        <mxCell id="MwSIgb_RVXlyAXQ-AR61-426" value="" style="rounded=0;whiteSpace=wrap;html=1;fillColor=#97D077;" vertex="1" parent="1">
          <mxGeometry x="3120" y="680" width="20" height="40" as="geometry" />
        </mxCell>
        <mxCell id="MwSIgb_RVXlyAXQ-AR61-427" value="" style="rounded=0;whiteSpace=wrap;html=1;fillColor=#97D077;" vertex="1" parent="1">
          <mxGeometry x="3140" y="640" width="20" height="40" as="geometry" />
        </mxCell>
        <mxCell id="MwSIgb_RVXlyAXQ-AR61-428" value="" style="rounded=0;whiteSpace=wrap;html=1;fillColor=#97D077;" vertex="1" parent="1">
          <mxGeometry x="3140" y="680" width="20" height="40" as="geometry" />
        </mxCell>
        <mxCell id="MwSIgb_RVXlyAXQ-AR61-429" value="" style="rounded=0;whiteSpace=wrap;html=1;fillColor=#97D077;" vertex="1" parent="1">
          <mxGeometry x="3160" y="640" width="20" height="40" as="geometry" />
        </mxCell>
        <mxCell id="MwSIgb_RVXlyAXQ-AR61-430" value="" style="rounded=0;whiteSpace=wrap;html=1;fillColor=#97D077;" vertex="1" parent="1">
          <mxGeometry x="3160" y="680" width="20" height="40" as="geometry" />
        </mxCell>
        <mxCell id="MwSIgb_RVXlyAXQ-AR61-431" value="" style="rounded=0;whiteSpace=wrap;html=1;fillColor=#97D077;" vertex="1" parent="1">
          <mxGeometry x="3178" y="640" width="20" height="40" as="geometry" />
        </mxCell>
        <mxCell id="MwSIgb_RVXlyAXQ-AR61-432" value="" style="rounded=0;whiteSpace=wrap;html=1;fillColor=#97D077;" vertex="1" parent="1">
          <mxGeometry x="3178" y="680" width="20" height="40" as="geometry" />
        </mxCell>
        <mxCell id="MwSIgb_RVXlyAXQ-AR61-433" value="" style="rounded=0;whiteSpace=wrap;html=1;fillColor=#97D077;" vertex="1" parent="1">
          <mxGeometry x="3198" y="640" width="20" height="40" as="geometry" />
        </mxCell>
        <mxCell id="MwSIgb_RVXlyAXQ-AR61-434" value="" style="rounded=0;whiteSpace=wrap;html=1;fillColor=#97D077;" vertex="1" parent="1">
          <mxGeometry x="3198" y="680" width="20" height="40" as="geometry" />
        </mxCell>
        <mxCell id="MwSIgb_RVXlyAXQ-AR61-435" value="" style="rounded=0;whiteSpace=wrap;html=1;fillColor=#97D077;" vertex="1" parent="1">
          <mxGeometry x="3218" y="640" width="20" height="40" as="geometry" />
        </mxCell>
        <mxCell id="MwSIgb_RVXlyAXQ-AR61-436" value="" style="rounded=0;whiteSpace=wrap;html=1;fillColor=#97D077;" vertex="1" parent="1">
          <mxGeometry x="3218" y="680" width="20" height="40" as="geometry" />
        </mxCell>
        <mxCell id="MwSIgb_RVXlyAXQ-AR61-437" value="" style="rounded=0;whiteSpace=wrap;html=1;fillColor=#97D077;" vertex="1" parent="1">
          <mxGeometry x="3238" y="640" width="20" height="40" as="geometry" />
        </mxCell>
        <mxCell id="MwSIgb_RVXlyAXQ-AR61-438" value="" style="rounded=0;whiteSpace=wrap;html=1;fillColor=#97D077;" vertex="1" parent="1">
          <mxGeometry x="3238" y="680" width="20" height="40" as="geometry" />
        </mxCell>
        <mxCell id="MwSIgb_RVXlyAXQ-AR61-439" value="" style="rounded=0;whiteSpace=wrap;html=1;fillColor=#97D077;" vertex="1" parent="1">
          <mxGeometry x="3258" y="640" width="20" height="40" as="geometry" />
        </mxCell>
        <mxCell id="MwSIgb_RVXlyAXQ-AR61-440" value="" style="rounded=0;whiteSpace=wrap;html=1;fillColor=#97D077;" vertex="1" parent="1">
          <mxGeometry x="3258" y="680" width="20" height="40" as="geometry" />
        </mxCell>
        <mxCell id="MwSIgb_RVXlyAXQ-AR61-441" value="" style="rounded=0;whiteSpace=wrap;html=1;fillColor=#97D077;" vertex="1" parent="1">
          <mxGeometry x="3278" y="640" width="20" height="40" as="geometry" />
        </mxCell>
        <mxCell id="MwSIgb_RVXlyAXQ-AR61-442" value="" style="rounded=0;whiteSpace=wrap;html=1;fillColor=#97D077;" vertex="1" parent="1">
          <mxGeometry x="3278" y="680" width="20" height="40" as="geometry" />
        </mxCell>
        <mxCell id="MwSIgb_RVXlyAXQ-AR61-443" value="" style="rounded=0;whiteSpace=wrap;html=1;fillColor=#97D077;" vertex="1" parent="1">
          <mxGeometry x="3298" y="640" width="20" height="40" as="geometry" />
        </mxCell>
        <mxCell id="MwSIgb_RVXlyAXQ-AR61-444" value="" style="rounded=0;whiteSpace=wrap;html=1;fillColor=#97D077;" vertex="1" parent="1">
          <mxGeometry x="3298" y="680" width="20" height="40" as="geometry" />
        </mxCell>
        <mxCell id="MwSIgb_RVXlyAXQ-AR61-445" value="" style="rounded=0;whiteSpace=wrap;html=1;fillColor=#97D077;" vertex="1" parent="1">
          <mxGeometry x="3318" y="640" width="20" height="40" as="geometry" />
        </mxCell>
        <mxCell id="MwSIgb_RVXlyAXQ-AR61-446" value="" style="rounded=0;whiteSpace=wrap;html=1;fillColor=#97D077;" vertex="1" parent="1">
          <mxGeometry x="3318" y="680" width="20" height="40" as="geometry" />
        </mxCell>
        <mxCell id="MwSIgb_RVXlyAXQ-AR61-447" value="" style="rounded=0;whiteSpace=wrap;html=1;fillColor=#97D077;" vertex="1" parent="1">
          <mxGeometry x="3336" y="640" width="20" height="40" as="geometry" />
        </mxCell>
        <mxCell id="MwSIgb_RVXlyAXQ-AR61-448" value="" style="rounded=0;whiteSpace=wrap;html=1;fillColor=#97D077;" vertex="1" parent="1">
          <mxGeometry x="3336" y="680" width="20" height="40" as="geometry" />
        </mxCell>
        <mxCell id="MwSIgb_RVXlyAXQ-AR61-449" value="" style="rounded=0;whiteSpace=wrap;html=1;fillColor=#97D077;" vertex="1" parent="1">
          <mxGeometry x="3356" y="640" width="20" height="40" as="geometry" />
        </mxCell>
        <mxCell id="MwSIgb_RVXlyAXQ-AR61-450" value="" style="rounded=0;whiteSpace=wrap;html=1;fillColor=#97D077;" vertex="1" parent="1">
          <mxGeometry x="3356" y="680" width="20" height="40" as="geometry" />
        </mxCell>
        <mxCell id="MwSIgb_RVXlyAXQ-AR61-451" value="" style="rounded=0;whiteSpace=wrap;html=1;fillColor=#97D077;" vertex="1" parent="1">
          <mxGeometry x="3376" y="640" width="20" height="40" as="geometry" />
        </mxCell>
        <mxCell id="MwSIgb_RVXlyAXQ-AR61-452" value="" style="rounded=0;whiteSpace=wrap;html=1;fillColor=#97D077;" vertex="1" parent="1">
          <mxGeometry x="3376" y="680" width="20" height="40" as="geometry" />
        </mxCell>
        <mxCell id="MwSIgb_RVXlyAXQ-AR61-453" value="" style="rounded=0;whiteSpace=wrap;html=1;fillColor=#97D077;" vertex="1" parent="1">
          <mxGeometry x="3396" y="640" width="20" height="40" as="geometry" />
        </mxCell>
        <mxCell id="MwSIgb_RVXlyAXQ-AR61-454" value="" style="rounded=0;whiteSpace=wrap;html=1;fillColor=#97D077;" vertex="1" parent="1">
          <mxGeometry x="3396" y="680" width="20" height="40" as="geometry" />
        </mxCell>
        <mxCell id="MwSIgb_RVXlyAXQ-AR61-455" value="Term" style="rounded=0;whiteSpace=wrap;html=1;fillColor=#66B2FF;" vertex="1" parent="1">
          <mxGeometry x="3040" y="640" width="60" height="40" as="geometry" />
        </mxCell>
        <mxCell id="MwSIgb_RVXlyAXQ-AR61-456" value="Index" style="rounded=0;whiteSpace=wrap;html=1;fillColor=#66B2FF;" vertex="1" parent="1">
          <mxGeometry x="3040" y="680" width="60" height="40" as="geometry" />
        </mxCell>
        <mxCell id="MwSIgb_RVXlyAXQ-AR61-457" value="" style="rounded=0;whiteSpace=wrap;html=1;fillColor=#97D077;" vertex="1" parent="1">
          <mxGeometry x="3100" y="720" width="20" height="40" as="geometry" />
        </mxCell>
        <mxCell id="MwSIgb_RVXlyAXQ-AR61-458" value="" style="rounded=0;whiteSpace=wrap;html=1;fillColor=#97D077;" vertex="1" parent="1">
          <mxGeometry x="3100" y="760" width="20" height="40" as="geometry" />
        </mxCell>
        <mxCell id="MwSIgb_RVXlyAXQ-AR61-459" value="" style="rounded=0;whiteSpace=wrap;html=1;fillColor=#97D077;" vertex="1" parent="1">
          <mxGeometry x="3120" y="720" width="20" height="40" as="geometry" />
        </mxCell>
        <mxCell id="MwSIgb_RVXlyAXQ-AR61-460" value="" style="rounded=0;whiteSpace=wrap;html=1;fillColor=#97D077;" vertex="1" parent="1">
          <mxGeometry x="3120" y="760" width="20" height="40" as="geometry" />
        </mxCell>
        <mxCell id="MwSIgb_RVXlyAXQ-AR61-461" value="" style="rounded=0;whiteSpace=wrap;html=1;fillColor=#97D077;" vertex="1" parent="1">
          <mxGeometry x="3140" y="720" width="20" height="40" as="geometry" />
        </mxCell>
        <mxCell id="MwSIgb_RVXlyAXQ-AR61-462" value="" style="rounded=0;whiteSpace=wrap;html=1;fillColor=#97D077;" vertex="1" parent="1">
          <mxGeometry x="3140" y="760" width="20" height="40" as="geometry" />
        </mxCell>
        <mxCell id="MwSIgb_RVXlyAXQ-AR61-463" value="" style="rounded=0;whiteSpace=wrap;html=1;fillColor=#97D077;" vertex="1" parent="1">
          <mxGeometry x="3160" y="720" width="20" height="40" as="geometry" />
        </mxCell>
        <mxCell id="MwSIgb_RVXlyAXQ-AR61-464" value="" style="rounded=0;whiteSpace=wrap;html=1;fillColor=#97D077;" vertex="1" parent="1">
          <mxGeometry x="3160" y="760" width="20" height="40" as="geometry" />
        </mxCell>
        <mxCell id="MwSIgb_RVXlyAXQ-AR61-465" value="" style="rounded=0;whiteSpace=wrap;html=1;fillColor=#97D077;" vertex="1" parent="1">
          <mxGeometry x="3178" y="720" width="20" height="40" as="geometry" />
        </mxCell>
        <mxCell id="MwSIgb_RVXlyAXQ-AR61-466" value="" style="rounded=0;whiteSpace=wrap;html=1;fillColor=#97D077;" vertex="1" parent="1">
          <mxGeometry x="3178" y="760" width="20" height="40" as="geometry" />
        </mxCell>
        <mxCell id="MwSIgb_RVXlyAXQ-AR61-467" value="" style="rounded=0;whiteSpace=wrap;html=1;fillColor=#97D077;" vertex="1" parent="1">
          <mxGeometry x="3198" y="720" width="20" height="40" as="geometry" />
        </mxCell>
        <mxCell id="MwSIgb_RVXlyAXQ-AR61-468" value="" style="rounded=0;whiteSpace=wrap;html=1;fillColor=#97D077;" vertex="1" parent="1">
          <mxGeometry x="3198" y="760" width="20" height="40" as="geometry" />
        </mxCell>
        <mxCell id="MwSIgb_RVXlyAXQ-AR61-469" value="" style="rounded=0;whiteSpace=wrap;html=1;fillColor=#97D077;" vertex="1" parent="1">
          <mxGeometry x="3218" y="720" width="20" height="40" as="geometry" />
        </mxCell>
        <mxCell id="MwSIgb_RVXlyAXQ-AR61-470" value="" style="rounded=0;whiteSpace=wrap;html=1;fillColor=#97D077;" vertex="1" parent="1">
          <mxGeometry x="3218" y="760" width="20" height="40" as="geometry" />
        </mxCell>
        <mxCell id="MwSIgb_RVXlyAXQ-AR61-471" value="" style="rounded=0;whiteSpace=wrap;html=1;fillColor=#97D077;" vertex="1" parent="1">
          <mxGeometry x="3238" y="720" width="20" height="40" as="geometry" />
        </mxCell>
        <mxCell id="MwSIgb_RVXlyAXQ-AR61-472" value="" style="rounded=0;whiteSpace=wrap;html=1;fillColor=#97D077;" vertex="1" parent="1">
          <mxGeometry x="3238" y="760" width="20" height="40" as="geometry" />
        </mxCell>
        <mxCell id="MwSIgb_RVXlyAXQ-AR61-473" value="" style="rounded=0;whiteSpace=wrap;html=1;fillColor=#97D077;" vertex="1" parent="1">
          <mxGeometry x="3258" y="720" width="20" height="40" as="geometry" />
        </mxCell>
        <mxCell id="MwSIgb_RVXlyAXQ-AR61-474" value="" style="rounded=0;whiteSpace=wrap;html=1;fillColor=#97D077;" vertex="1" parent="1">
          <mxGeometry x="3258" y="760" width="20" height="40" as="geometry" />
        </mxCell>
        <mxCell id="MwSIgb_RVXlyAXQ-AR61-475" value="" style="rounded=0;whiteSpace=wrap;html=1;fillColor=#97D077;" vertex="1" parent="1">
          <mxGeometry x="3278" y="720" width="20" height="40" as="geometry" />
        </mxCell>
        <mxCell id="MwSIgb_RVXlyAXQ-AR61-476" value="" style="rounded=0;whiteSpace=wrap;html=1;fillColor=#97D077;" vertex="1" parent="1">
          <mxGeometry x="3278" y="760" width="20" height="40" as="geometry" />
        </mxCell>
        <mxCell id="MwSIgb_RVXlyAXQ-AR61-477" value="" style="rounded=0;whiteSpace=wrap;html=1;fillColor=#97D077;" vertex="1" parent="1">
          <mxGeometry x="3298" y="720" width="20" height="40" as="geometry" />
        </mxCell>
        <mxCell id="MwSIgb_RVXlyAXQ-AR61-478" value="" style="rounded=0;whiteSpace=wrap;html=1;fillColor=#97D077;" vertex="1" parent="1">
          <mxGeometry x="3298" y="760" width="20" height="40" as="geometry" />
        </mxCell>
        <mxCell id="MwSIgb_RVXlyAXQ-AR61-479" value="" style="rounded=0;whiteSpace=wrap;html=1;fillColor=#97D077;" vertex="1" parent="1">
          <mxGeometry x="3318" y="720" width="20" height="40" as="geometry" />
        </mxCell>
        <mxCell id="MwSIgb_RVXlyAXQ-AR61-480" value="" style="rounded=0;whiteSpace=wrap;html=1;fillColor=#97D077;" vertex="1" parent="1">
          <mxGeometry x="3318" y="760" width="20" height="40" as="geometry" />
        </mxCell>
        <mxCell id="MwSIgb_RVXlyAXQ-AR61-481" value="" style="rounded=0;whiteSpace=wrap;html=1;fillColor=#97D077;" vertex="1" parent="1">
          <mxGeometry x="3336" y="720" width="20" height="40" as="geometry" />
        </mxCell>
        <mxCell id="MwSIgb_RVXlyAXQ-AR61-482" value="" style="rounded=0;whiteSpace=wrap;html=1;fillColor=#97D077;" vertex="1" parent="1">
          <mxGeometry x="3336" y="760" width="20" height="40" as="geometry" />
        </mxCell>
        <mxCell id="MwSIgb_RVXlyAXQ-AR61-483" value="" style="rounded=0;whiteSpace=wrap;html=1;fillColor=#97D077;" vertex="1" parent="1">
          <mxGeometry x="3356" y="720" width="20" height="40" as="geometry" />
        </mxCell>
        <mxCell id="MwSIgb_RVXlyAXQ-AR61-484" value="" style="rounded=0;whiteSpace=wrap;html=1;fillColor=#97D077;" vertex="1" parent="1">
          <mxGeometry x="3356" y="760" width="20" height="40" as="geometry" />
        </mxCell>
        <mxCell id="MwSIgb_RVXlyAXQ-AR61-485" value="" style="rounded=0;whiteSpace=wrap;html=1;fillColor=#97D077;" vertex="1" parent="1">
          <mxGeometry x="3376" y="720" width="20" height="40" as="geometry" />
        </mxCell>
        <mxCell id="MwSIgb_RVXlyAXQ-AR61-486" value="" style="rounded=0;whiteSpace=wrap;html=1;fillColor=#97D077;" vertex="1" parent="1">
          <mxGeometry x="3376" y="760" width="20" height="40" as="geometry" />
        </mxCell>
        <mxCell id="MwSIgb_RVXlyAXQ-AR61-487" value="" style="rounded=0;whiteSpace=wrap;html=1;fillColor=#97D077;" vertex="1" parent="1">
          <mxGeometry x="3396" y="720" width="20" height="40" as="geometry" />
        </mxCell>
        <mxCell id="MwSIgb_RVXlyAXQ-AR61-488" value="" style="rounded=0;whiteSpace=wrap;html=1;fillColor=#97D077;" vertex="1" parent="1">
          <mxGeometry x="3396" y="760" width="20" height="40" as="geometry" />
        </mxCell>
        <mxCell id="MwSIgb_RVXlyAXQ-AR61-489" value="Term" style="rounded=0;whiteSpace=wrap;html=1;fillColor=#66B2FF;" vertex="1" parent="1">
          <mxGeometry x="3040" y="720" width="60" height="40" as="geometry" />
        </mxCell>
        <mxCell id="MwSIgb_RVXlyAXQ-AR61-490" value="Index" style="rounded=0;whiteSpace=wrap;html=1;fillColor=#66B2FF;" vertex="1" parent="1">
          <mxGeometry x="3040" y="760" width="60" height="40" as="geometry" />
        </mxCell>
        <mxCell id="MwSIgb_RVXlyAXQ-AR61-491" value="Term" style="rounded=0;whiteSpace=wrap;html=1;fillColor=#66B2FF;" vertex="1" parent="1">
          <mxGeometry x="3520" y="560" width="60" height="40" as="geometry" />
        </mxCell>
        <mxCell id="MwSIgb_RVXlyAXQ-AR61-492" value="Index" style="rounded=0;whiteSpace=wrap;html=1;fillColor=#66B2FF;" vertex="1" parent="1">
          <mxGeometry x="3520" y="600" width="60" height="40" as="geometry" />
        </mxCell>
        <mxCell id="MwSIgb_RVXlyAXQ-AR61-493" value="5" style="rounded=0;whiteSpace=wrap;html=1;fillColor=#97D077;" vertex="1" parent="1">
          <mxGeometry x="3580" y="560" width="20" height="40" as="geometry" />
        </mxCell>
        <mxCell id="MwSIgb_RVXlyAXQ-AR61-494" value="5" style="rounded=0;whiteSpace=wrap;html=1;fillColor=#97D077;" vertex="1" parent="1">
          <mxGeometry x="3580" y="600" width="20" height="40" as="geometry" />
        </mxCell>
        <mxCell id="MwSIgb_RVXlyAXQ-AR61-495" value="7" style="rounded=0;whiteSpace=wrap;html=1;fillColor=#97D077;" vertex="1" parent="1">
          <mxGeometry x="3600" y="560" width="20" height="40" as="geometry" />
        </mxCell>
        <mxCell id="MwSIgb_RVXlyAXQ-AR61-496" value="6" style="rounded=0;whiteSpace=wrap;html=1;fillColor=#97D077;" vertex="1" parent="1">
          <mxGeometry x="3600" y="600" width="20" height="40" as="geometry" />
        </mxCell>
        <mxCell id="MwSIgb_RVXlyAXQ-AR61-497" value="9" style="rounded=0;whiteSpace=wrap;html=1;fillColor=#97D077;" vertex="1" parent="1">
          <mxGeometry x="3620" y="560" width="20" height="40" as="geometry" />
        </mxCell>
        <mxCell id="MwSIgb_RVXlyAXQ-AR61-498" value="7" style="rounded=0;whiteSpace=wrap;html=1;fillColor=#97D077;" vertex="1" parent="1">
          <mxGeometry x="3620" y="600" width="20" height="40" as="geometry" />
        </mxCell>
        <mxCell id="MwSIgb_RVXlyAXQ-AR61-499" value="11" style="rounded=0;whiteSpace=wrap;html=1;fillColor=#97D077;" vertex="1" parent="1">
          <mxGeometry x="3640" y="560" width="20" height="40" as="geometry" />
        </mxCell>
        <mxCell id="MwSIgb_RVXlyAXQ-AR61-500" value="8" style="rounded=0;whiteSpace=wrap;html=1;fillColor=#97D077;" vertex="1" parent="1">
          <mxGeometry x="3640" y="600" width="20" height="40" as="geometry" />
        </mxCell>
        <mxCell id="MwSIgb_RVXlyAXQ-AR61-501" value="" style="rounded=0;whiteSpace=wrap;html=1;fillColor=#97D077;" vertex="1" parent="1">
          <mxGeometry x="3658" y="560" width="20" height="40" as="geometry" />
        </mxCell>
        <mxCell id="MwSIgb_RVXlyAXQ-AR61-502" value="" style="rounded=0;whiteSpace=wrap;html=1;fillColor=#97D077;" vertex="1" parent="1">
          <mxGeometry x="3658" y="600" width="20" height="40" as="geometry" />
        </mxCell>
        <mxCell id="MwSIgb_RVXlyAXQ-AR61-503" value="" style="rounded=0;whiteSpace=wrap;html=1;fillColor=#97D077;" vertex="1" parent="1">
          <mxGeometry x="3678" y="560" width="20" height="40" as="geometry" />
        </mxCell>
        <mxCell id="MwSIgb_RVXlyAXQ-AR61-504" value="" style="rounded=0;whiteSpace=wrap;html=1;fillColor=#97D077;" vertex="1" parent="1">
          <mxGeometry x="3678" y="600" width="20" height="40" as="geometry" />
        </mxCell>
        <mxCell id="MwSIgb_RVXlyAXQ-AR61-505" value="" style="rounded=0;whiteSpace=wrap;html=1;fillColor=#97D077;" vertex="1" parent="1">
          <mxGeometry x="3698" y="560" width="20" height="40" as="geometry" />
        </mxCell>
        <mxCell id="MwSIgb_RVXlyAXQ-AR61-506" value="" style="rounded=0;whiteSpace=wrap;html=1;fillColor=#97D077;" vertex="1" parent="1">
          <mxGeometry x="3698" y="600" width="20" height="40" as="geometry" />
        </mxCell>
        <mxCell id="MwSIgb_RVXlyAXQ-AR61-507" value="" style="rounded=0;whiteSpace=wrap;html=1;fillColor=#97D077;" vertex="1" parent="1">
          <mxGeometry x="3718" y="560" width="20" height="40" as="geometry" />
        </mxCell>
        <mxCell id="MwSIgb_RVXlyAXQ-AR61-508" value="" style="rounded=0;whiteSpace=wrap;html=1;fillColor=#97D077;" vertex="1" parent="1">
          <mxGeometry x="3718" y="600" width="20" height="40" as="geometry" />
        </mxCell>
        <mxCell id="MwSIgb_RVXlyAXQ-AR61-509" value="" style="rounded=0;whiteSpace=wrap;html=1;fillColor=#97D077;" vertex="1" parent="1">
          <mxGeometry x="3738" y="560" width="20" height="40" as="geometry" />
        </mxCell>
        <mxCell id="MwSIgb_RVXlyAXQ-AR61-510" value="" style="rounded=0;whiteSpace=wrap;html=1;fillColor=#97D077;" vertex="1" parent="1">
          <mxGeometry x="3738" y="600" width="20" height="40" as="geometry" />
        </mxCell>
        <mxCell id="MwSIgb_RVXlyAXQ-AR61-511" value="" style="rounded=0;whiteSpace=wrap;html=1;fillColor=#97D077;" vertex="1" parent="1">
          <mxGeometry x="3758" y="560" width="20" height="40" as="geometry" />
        </mxCell>
        <mxCell id="MwSIgb_RVXlyAXQ-AR61-512" value="" style="rounded=0;whiteSpace=wrap;html=1;fillColor=#97D077;" vertex="1" parent="1">
          <mxGeometry x="3758" y="600" width="20" height="40" as="geometry" />
        </mxCell>
        <mxCell id="MwSIgb_RVXlyAXQ-AR61-513" value="" style="rounded=0;whiteSpace=wrap;html=1;fillColor=#97D077;" vertex="1" parent="1">
          <mxGeometry x="3778" y="560" width="20" height="40" as="geometry" />
        </mxCell>
        <mxCell id="MwSIgb_RVXlyAXQ-AR61-514" value="" style="rounded=0;whiteSpace=wrap;html=1;fillColor=#97D077;" vertex="1" parent="1">
          <mxGeometry x="3778" y="600" width="20" height="40" as="geometry" />
        </mxCell>
        <mxCell id="MwSIgb_RVXlyAXQ-AR61-515" value="" style="rounded=0;whiteSpace=wrap;html=1;fillColor=#97D077;" vertex="1" parent="1">
          <mxGeometry x="3798" y="560" width="20" height="40" as="geometry" />
        </mxCell>
        <mxCell id="MwSIgb_RVXlyAXQ-AR61-516" value="" style="rounded=0;whiteSpace=wrap;html=1;fillColor=#97D077;" vertex="1" parent="1">
          <mxGeometry x="3798" y="600" width="20" height="40" as="geometry" />
        </mxCell>
        <mxCell id="MwSIgb_RVXlyAXQ-AR61-517" value="" style="rounded=0;whiteSpace=wrap;html=1;fillColor=#97D077;" vertex="1" parent="1">
          <mxGeometry x="3816" y="560" width="20" height="40" as="geometry" />
        </mxCell>
        <mxCell id="MwSIgb_RVXlyAXQ-AR61-518" value="" style="rounded=0;whiteSpace=wrap;html=1;fillColor=#97D077;" vertex="1" parent="1">
          <mxGeometry x="3816" y="600" width="20" height="40" as="geometry" />
        </mxCell>
        <mxCell id="MwSIgb_RVXlyAXQ-AR61-519" value="" style="rounded=0;whiteSpace=wrap;html=1;fillColor=#97D077;" vertex="1" parent="1">
          <mxGeometry x="3836" y="560" width="20" height="40" as="geometry" />
        </mxCell>
        <mxCell id="MwSIgb_RVXlyAXQ-AR61-520" value="" style="rounded=0;whiteSpace=wrap;html=1;fillColor=#97D077;" vertex="1" parent="1">
          <mxGeometry x="3836" y="600" width="20" height="40" as="geometry" />
        </mxCell>
        <mxCell id="MwSIgb_RVXlyAXQ-AR61-521" value="" style="rounded=0;whiteSpace=wrap;html=1;fillColor=#97D077;" vertex="1" parent="1">
          <mxGeometry x="3856" y="560" width="20" height="40" as="geometry" />
        </mxCell>
        <mxCell id="MwSIgb_RVXlyAXQ-AR61-522" value="" style="rounded=0;whiteSpace=wrap;html=1;fillColor=#97D077;" vertex="1" parent="1">
          <mxGeometry x="3856" y="600" width="20" height="40" as="geometry" />
        </mxCell>
        <mxCell id="MwSIgb_RVXlyAXQ-AR61-523" value="" style="rounded=0;whiteSpace=wrap;html=1;fillColor=#97D077;" vertex="1" parent="1">
          <mxGeometry x="3876" y="560" width="20" height="40" as="geometry" />
        </mxCell>
        <mxCell id="MwSIgb_RVXlyAXQ-AR61-524" value="" style="rounded=0;whiteSpace=wrap;html=1;fillColor=#97D077;" vertex="1" parent="1">
          <mxGeometry x="3876" y="600" width="20" height="40" as="geometry" />
        </mxCell>
        <mxCell id="MwSIgb_RVXlyAXQ-AR61-525" value="" style="rounded=0;whiteSpace=wrap;html=1;fillColor=#97D077;" vertex="1" parent="1">
          <mxGeometry x="3580" y="640" width="20" height="40" as="geometry" />
        </mxCell>
        <mxCell id="MwSIgb_RVXlyAXQ-AR61-526" value="" style="rounded=0;whiteSpace=wrap;html=1;fillColor=#97D077;" vertex="1" parent="1">
          <mxGeometry x="3580" y="680" width="20" height="40" as="geometry" />
        </mxCell>
        <mxCell id="MwSIgb_RVXlyAXQ-AR61-527" value="" style="rounded=0;whiteSpace=wrap;html=1;fillColor=#97D077;" vertex="1" parent="1">
          <mxGeometry x="3600" y="640" width="20" height="40" as="geometry" />
        </mxCell>
        <mxCell id="MwSIgb_RVXlyAXQ-AR61-528" value="" style="rounded=0;whiteSpace=wrap;html=1;fillColor=#97D077;" vertex="1" parent="1">
          <mxGeometry x="3600" y="680" width="20" height="40" as="geometry" />
        </mxCell>
        <mxCell id="MwSIgb_RVXlyAXQ-AR61-529" value="" style="rounded=0;whiteSpace=wrap;html=1;fillColor=#97D077;" vertex="1" parent="1">
          <mxGeometry x="3620" y="640" width="20" height="40" as="geometry" />
        </mxCell>
        <mxCell id="MwSIgb_RVXlyAXQ-AR61-530" value="" style="rounded=0;whiteSpace=wrap;html=1;fillColor=#97D077;" vertex="1" parent="1">
          <mxGeometry x="3620" y="680" width="20" height="40" as="geometry" />
        </mxCell>
        <mxCell id="MwSIgb_RVXlyAXQ-AR61-531" value="" style="rounded=0;whiteSpace=wrap;html=1;fillColor=#97D077;" vertex="1" parent="1">
          <mxGeometry x="3640" y="640" width="20" height="40" as="geometry" />
        </mxCell>
        <mxCell id="MwSIgb_RVXlyAXQ-AR61-532" value="" style="rounded=0;whiteSpace=wrap;html=1;fillColor=#97D077;" vertex="1" parent="1">
          <mxGeometry x="3640" y="680" width="20" height="40" as="geometry" />
        </mxCell>
        <mxCell id="MwSIgb_RVXlyAXQ-AR61-533" value="" style="rounded=0;whiteSpace=wrap;html=1;fillColor=#97D077;" vertex="1" parent="1">
          <mxGeometry x="3658" y="640" width="20" height="40" as="geometry" />
        </mxCell>
        <mxCell id="MwSIgb_RVXlyAXQ-AR61-534" value="" style="rounded=0;whiteSpace=wrap;html=1;fillColor=#97D077;" vertex="1" parent="1">
          <mxGeometry x="3658" y="680" width="20" height="40" as="geometry" />
        </mxCell>
        <mxCell id="MwSIgb_RVXlyAXQ-AR61-535" value="" style="rounded=0;whiteSpace=wrap;html=1;fillColor=#97D077;" vertex="1" parent="1">
          <mxGeometry x="3678" y="640" width="20" height="40" as="geometry" />
        </mxCell>
        <mxCell id="MwSIgb_RVXlyAXQ-AR61-536" value="" style="rounded=0;whiteSpace=wrap;html=1;fillColor=#97D077;" vertex="1" parent="1">
          <mxGeometry x="3678" y="680" width="20" height="40" as="geometry" />
        </mxCell>
        <mxCell id="MwSIgb_RVXlyAXQ-AR61-537" value="" style="rounded=0;whiteSpace=wrap;html=1;fillColor=#97D077;" vertex="1" parent="1">
          <mxGeometry x="3698" y="640" width="20" height="40" as="geometry" />
        </mxCell>
        <mxCell id="MwSIgb_RVXlyAXQ-AR61-538" value="" style="rounded=0;whiteSpace=wrap;html=1;fillColor=#97D077;" vertex="1" parent="1">
          <mxGeometry x="3698" y="680" width="20" height="40" as="geometry" />
        </mxCell>
        <mxCell id="MwSIgb_RVXlyAXQ-AR61-539" value="" style="rounded=0;whiteSpace=wrap;html=1;fillColor=#97D077;" vertex="1" parent="1">
          <mxGeometry x="3718" y="640" width="20" height="40" as="geometry" />
        </mxCell>
        <mxCell id="MwSIgb_RVXlyAXQ-AR61-540" value="" style="rounded=0;whiteSpace=wrap;html=1;fillColor=#97D077;" vertex="1" parent="1">
          <mxGeometry x="3718" y="680" width="20" height="40" as="geometry" />
        </mxCell>
        <mxCell id="MwSIgb_RVXlyAXQ-AR61-541" value="" style="rounded=0;whiteSpace=wrap;html=1;fillColor=#97D077;" vertex="1" parent="1">
          <mxGeometry x="3738" y="640" width="20" height="40" as="geometry" />
        </mxCell>
        <mxCell id="MwSIgb_RVXlyAXQ-AR61-542" value="" style="rounded=0;whiteSpace=wrap;html=1;fillColor=#97D077;" vertex="1" parent="1">
          <mxGeometry x="3738" y="680" width="20" height="40" as="geometry" />
        </mxCell>
        <mxCell id="MwSIgb_RVXlyAXQ-AR61-543" value="" style="rounded=0;whiteSpace=wrap;html=1;fillColor=#97D077;" vertex="1" parent="1">
          <mxGeometry x="3758" y="640" width="20" height="40" as="geometry" />
        </mxCell>
        <mxCell id="MwSIgb_RVXlyAXQ-AR61-544" value="" style="rounded=0;whiteSpace=wrap;html=1;fillColor=#97D077;" vertex="1" parent="1">
          <mxGeometry x="3758" y="680" width="20" height="40" as="geometry" />
        </mxCell>
        <mxCell id="MwSIgb_RVXlyAXQ-AR61-545" value="" style="rounded=0;whiteSpace=wrap;html=1;fillColor=#97D077;" vertex="1" parent="1">
          <mxGeometry x="3778" y="640" width="20" height="40" as="geometry" />
        </mxCell>
        <mxCell id="MwSIgb_RVXlyAXQ-AR61-546" value="" style="rounded=0;whiteSpace=wrap;html=1;fillColor=#97D077;" vertex="1" parent="1">
          <mxGeometry x="3778" y="680" width="20" height="40" as="geometry" />
        </mxCell>
        <mxCell id="MwSIgb_RVXlyAXQ-AR61-547" value="" style="rounded=0;whiteSpace=wrap;html=1;fillColor=#97D077;" vertex="1" parent="1">
          <mxGeometry x="3798" y="640" width="20" height="40" as="geometry" />
        </mxCell>
        <mxCell id="MwSIgb_RVXlyAXQ-AR61-548" value="" style="rounded=0;whiteSpace=wrap;html=1;fillColor=#97D077;" vertex="1" parent="1">
          <mxGeometry x="3798" y="680" width="20" height="40" as="geometry" />
        </mxCell>
        <mxCell id="MwSIgb_RVXlyAXQ-AR61-549" value="" style="rounded=0;whiteSpace=wrap;html=1;fillColor=#97D077;" vertex="1" parent="1">
          <mxGeometry x="3816" y="640" width="20" height="40" as="geometry" />
        </mxCell>
        <mxCell id="MwSIgb_RVXlyAXQ-AR61-550" value="" style="rounded=0;whiteSpace=wrap;html=1;fillColor=#97D077;" vertex="1" parent="1">
          <mxGeometry x="3816" y="680" width="20" height="40" as="geometry" />
        </mxCell>
        <mxCell id="MwSIgb_RVXlyAXQ-AR61-551" value="" style="rounded=0;whiteSpace=wrap;html=1;fillColor=#97D077;" vertex="1" parent="1">
          <mxGeometry x="3836" y="640" width="20" height="40" as="geometry" />
        </mxCell>
        <mxCell id="MwSIgb_RVXlyAXQ-AR61-552" value="" style="rounded=0;whiteSpace=wrap;html=1;fillColor=#97D077;" vertex="1" parent="1">
          <mxGeometry x="3836" y="680" width="20" height="40" as="geometry" />
        </mxCell>
        <mxCell id="MwSIgb_RVXlyAXQ-AR61-553" value="" style="rounded=0;whiteSpace=wrap;html=1;fillColor=#97D077;" vertex="1" parent="1">
          <mxGeometry x="3856" y="640" width="20" height="40" as="geometry" />
        </mxCell>
        <mxCell id="MwSIgb_RVXlyAXQ-AR61-554" value="" style="rounded=0;whiteSpace=wrap;html=1;fillColor=#97D077;" vertex="1" parent="1">
          <mxGeometry x="3856" y="680" width="20" height="40" as="geometry" />
        </mxCell>
        <mxCell id="MwSIgb_RVXlyAXQ-AR61-555" value="" style="rounded=0;whiteSpace=wrap;html=1;fillColor=#97D077;" vertex="1" parent="1">
          <mxGeometry x="3876" y="640" width="20" height="40" as="geometry" />
        </mxCell>
        <mxCell id="MwSIgb_RVXlyAXQ-AR61-556" value="" style="rounded=0;whiteSpace=wrap;html=1;fillColor=#97D077;" vertex="1" parent="1">
          <mxGeometry x="3876" y="680" width="20" height="40" as="geometry" />
        </mxCell>
        <mxCell id="MwSIgb_RVXlyAXQ-AR61-557" value="Term" style="rounded=0;whiteSpace=wrap;html=1;fillColor=#66B2FF;" vertex="1" parent="1">
          <mxGeometry x="3520" y="640" width="60" height="40" as="geometry" />
        </mxCell>
        <mxCell id="MwSIgb_RVXlyAXQ-AR61-558" value="Index" style="rounded=0;whiteSpace=wrap;html=1;fillColor=#66B2FF;" vertex="1" parent="1">
          <mxGeometry x="3520" y="680" width="60" height="40" as="geometry" />
        </mxCell>
        <mxCell id="MwSIgb_RVXlyAXQ-AR61-559" value="" style="rounded=0;whiteSpace=wrap;html=1;fillColor=#97D077;" vertex="1" parent="1">
          <mxGeometry x="3580" y="720" width="20" height="40" as="geometry" />
        </mxCell>
        <mxCell id="MwSIgb_RVXlyAXQ-AR61-560" value="" style="rounded=0;whiteSpace=wrap;html=1;fillColor=#97D077;" vertex="1" parent="1">
          <mxGeometry x="3580" y="760" width="20" height="40" as="geometry" />
        </mxCell>
        <mxCell id="MwSIgb_RVXlyAXQ-AR61-561" value="" style="rounded=0;whiteSpace=wrap;html=1;fillColor=#97D077;" vertex="1" parent="1">
          <mxGeometry x="3600" y="720" width="20" height="40" as="geometry" />
        </mxCell>
        <mxCell id="MwSIgb_RVXlyAXQ-AR61-562" value="" style="rounded=0;whiteSpace=wrap;html=1;fillColor=#97D077;" vertex="1" parent="1">
          <mxGeometry x="3600" y="760" width="20" height="40" as="geometry" />
        </mxCell>
        <mxCell id="MwSIgb_RVXlyAXQ-AR61-563" value="" style="rounded=0;whiteSpace=wrap;html=1;fillColor=#97D077;" vertex="1" parent="1">
          <mxGeometry x="3620" y="720" width="20" height="40" as="geometry" />
        </mxCell>
        <mxCell id="MwSIgb_RVXlyAXQ-AR61-564" value="" style="rounded=0;whiteSpace=wrap;html=1;fillColor=#97D077;" vertex="1" parent="1">
          <mxGeometry x="3620" y="760" width="20" height="40" as="geometry" />
        </mxCell>
        <mxCell id="MwSIgb_RVXlyAXQ-AR61-565" value="" style="rounded=0;whiteSpace=wrap;html=1;fillColor=#97D077;" vertex="1" parent="1">
          <mxGeometry x="3640" y="720" width="20" height="40" as="geometry" />
        </mxCell>
        <mxCell id="MwSIgb_RVXlyAXQ-AR61-566" value="" style="rounded=0;whiteSpace=wrap;html=1;fillColor=#97D077;" vertex="1" parent="1">
          <mxGeometry x="3640" y="760" width="20" height="40" as="geometry" />
        </mxCell>
        <mxCell id="MwSIgb_RVXlyAXQ-AR61-567" value="" style="rounded=0;whiteSpace=wrap;html=1;fillColor=#97D077;" vertex="1" parent="1">
          <mxGeometry x="3658" y="720" width="20" height="40" as="geometry" />
        </mxCell>
        <mxCell id="MwSIgb_RVXlyAXQ-AR61-568" value="" style="rounded=0;whiteSpace=wrap;html=1;fillColor=#97D077;" vertex="1" parent="1">
          <mxGeometry x="3658" y="760" width="20" height="40" as="geometry" />
        </mxCell>
        <mxCell id="MwSIgb_RVXlyAXQ-AR61-569" value="" style="rounded=0;whiteSpace=wrap;html=1;fillColor=#97D077;" vertex="1" parent="1">
          <mxGeometry x="3678" y="720" width="20" height="40" as="geometry" />
        </mxCell>
        <mxCell id="MwSIgb_RVXlyAXQ-AR61-570" value="" style="rounded=0;whiteSpace=wrap;html=1;fillColor=#97D077;" vertex="1" parent="1">
          <mxGeometry x="3678" y="760" width="20" height="40" as="geometry" />
        </mxCell>
        <mxCell id="MwSIgb_RVXlyAXQ-AR61-571" value="" style="rounded=0;whiteSpace=wrap;html=1;fillColor=#97D077;" vertex="1" parent="1">
          <mxGeometry x="3698" y="720" width="20" height="40" as="geometry" />
        </mxCell>
        <mxCell id="MwSIgb_RVXlyAXQ-AR61-572" value="" style="rounded=0;whiteSpace=wrap;html=1;fillColor=#97D077;" vertex="1" parent="1">
          <mxGeometry x="3698" y="760" width="20" height="40" as="geometry" />
        </mxCell>
        <mxCell id="MwSIgb_RVXlyAXQ-AR61-573" value="" style="rounded=0;whiteSpace=wrap;html=1;fillColor=#97D077;" vertex="1" parent="1">
          <mxGeometry x="3718" y="720" width="20" height="40" as="geometry" />
        </mxCell>
        <mxCell id="MwSIgb_RVXlyAXQ-AR61-574" value="" style="rounded=0;whiteSpace=wrap;html=1;fillColor=#97D077;" vertex="1" parent="1">
          <mxGeometry x="3718" y="760" width="20" height="40" as="geometry" />
        </mxCell>
        <mxCell id="MwSIgb_RVXlyAXQ-AR61-575" value="" style="rounded=0;whiteSpace=wrap;html=1;fillColor=#97D077;" vertex="1" parent="1">
          <mxGeometry x="3738" y="720" width="20" height="40" as="geometry" />
        </mxCell>
        <mxCell id="MwSIgb_RVXlyAXQ-AR61-576" value="" style="rounded=0;whiteSpace=wrap;html=1;fillColor=#97D077;" vertex="1" parent="1">
          <mxGeometry x="3738" y="760" width="20" height="40" as="geometry" />
        </mxCell>
        <mxCell id="MwSIgb_RVXlyAXQ-AR61-577" value="" style="rounded=0;whiteSpace=wrap;html=1;fillColor=#97D077;" vertex="1" parent="1">
          <mxGeometry x="3758" y="720" width="20" height="40" as="geometry" />
        </mxCell>
        <mxCell id="MwSIgb_RVXlyAXQ-AR61-578" value="" style="rounded=0;whiteSpace=wrap;html=1;fillColor=#97D077;" vertex="1" parent="1">
          <mxGeometry x="3758" y="760" width="20" height="40" as="geometry" />
        </mxCell>
        <mxCell id="MwSIgb_RVXlyAXQ-AR61-579" value="" style="rounded=0;whiteSpace=wrap;html=1;fillColor=#97D077;" vertex="1" parent="1">
          <mxGeometry x="3778" y="720" width="20" height="40" as="geometry" />
        </mxCell>
        <mxCell id="MwSIgb_RVXlyAXQ-AR61-580" value="" style="rounded=0;whiteSpace=wrap;html=1;fillColor=#97D077;" vertex="1" parent="1">
          <mxGeometry x="3778" y="760" width="20" height="40" as="geometry" />
        </mxCell>
        <mxCell id="MwSIgb_RVXlyAXQ-AR61-581" value="" style="rounded=0;whiteSpace=wrap;html=1;fillColor=#97D077;" vertex="1" parent="1">
          <mxGeometry x="3798" y="720" width="20" height="40" as="geometry" />
        </mxCell>
        <mxCell id="MwSIgb_RVXlyAXQ-AR61-582" value="" style="rounded=0;whiteSpace=wrap;html=1;fillColor=#97D077;" vertex="1" parent="1">
          <mxGeometry x="3798" y="760" width="20" height="40" as="geometry" />
        </mxCell>
        <mxCell id="MwSIgb_RVXlyAXQ-AR61-583" value="" style="rounded=0;whiteSpace=wrap;html=1;fillColor=#97D077;" vertex="1" parent="1">
          <mxGeometry x="3816" y="720" width="20" height="40" as="geometry" />
        </mxCell>
        <mxCell id="MwSIgb_RVXlyAXQ-AR61-584" value="" style="rounded=0;whiteSpace=wrap;html=1;fillColor=#97D077;" vertex="1" parent="1">
          <mxGeometry x="3816" y="760" width="20" height="40" as="geometry" />
        </mxCell>
        <mxCell id="MwSIgb_RVXlyAXQ-AR61-585" value="" style="rounded=0;whiteSpace=wrap;html=1;fillColor=#97D077;" vertex="1" parent="1">
          <mxGeometry x="3836" y="720" width="20" height="40" as="geometry" />
        </mxCell>
        <mxCell id="MwSIgb_RVXlyAXQ-AR61-586" value="" style="rounded=0;whiteSpace=wrap;html=1;fillColor=#97D077;" vertex="1" parent="1">
          <mxGeometry x="3836" y="760" width="20" height="40" as="geometry" />
        </mxCell>
        <mxCell id="MwSIgb_RVXlyAXQ-AR61-587" value="" style="rounded=0;whiteSpace=wrap;html=1;fillColor=#97D077;" vertex="1" parent="1">
          <mxGeometry x="3856" y="720" width="20" height="40" as="geometry" />
        </mxCell>
        <mxCell id="MwSIgb_RVXlyAXQ-AR61-588" value="" style="rounded=0;whiteSpace=wrap;html=1;fillColor=#97D077;" vertex="1" parent="1">
          <mxGeometry x="3856" y="760" width="20" height="40" as="geometry" />
        </mxCell>
        <mxCell id="MwSIgb_RVXlyAXQ-AR61-589" value="" style="rounded=0;whiteSpace=wrap;html=1;fillColor=#97D077;" vertex="1" parent="1">
          <mxGeometry x="3876" y="720" width="20" height="40" as="geometry" />
        </mxCell>
        <mxCell id="MwSIgb_RVXlyAXQ-AR61-590" value="" style="rounded=0;whiteSpace=wrap;html=1;fillColor=#97D077;" vertex="1" parent="1">
          <mxGeometry x="3876" y="760" width="20" height="40" as="geometry" />
        </mxCell>
        <mxCell id="MwSIgb_RVXlyAXQ-AR61-591" value="Term" style="rounded=0;whiteSpace=wrap;html=1;fillColor=#66B2FF;" vertex="1" parent="1">
          <mxGeometry x="3520" y="720" width="60" height="40" as="geometry" />
        </mxCell>
        <mxCell id="MwSIgb_RVXlyAXQ-AR61-592" value="Index" style="rounded=0;whiteSpace=wrap;html=1;fillColor=#66B2FF;" vertex="1" parent="1">
          <mxGeometry x="3520" y="760" width="60" height="40" as="geometry" />
        </mxCell>
        <mxCell id="MwSIgb_RVXlyAXQ-AR61-593" value="8" style="rounded=0;whiteSpace=wrap;html=1;fillColor=#00CCCC;" vertex="1" parent="1">
          <mxGeometry x="2740" y="320" width="60" height="40" as="geometry" />
        </mxCell>
        <mxCell id="MwSIgb_RVXlyAXQ-AR61-594" value="5" style="rounded=0;whiteSpace=wrap;html=1;fillColor=#CC0000;" vertex="1" parent="1">
          <mxGeometry x="2740" y="360" width="60" height="40" as="geometry" />
        </mxCell>
        <mxCell id="MwSIgb_RVXlyAXQ-AR61-595" value="8" style="rounded=0;whiteSpace=wrap;html=1;fillColor=#B3B3B3;" vertex="1" parent="1">
          <mxGeometry x="2740" y="400" width="60" height="40" as="geometry" />
        </mxCell>
        <mxCell id="MwSIgb_RVXlyAXQ-AR61-596" value="6" style="rounded=0;whiteSpace=wrap;html=1;fillColor=#97D077;" vertex="1" parent="1">
          <mxGeometry x="2740" y="440" width="60" height="40" as="geometry" />
        </mxCell>
        <mxCell id="MwSIgb_RVXlyAXQ-AR61-597" value="5" style="rounded=0;whiteSpace=wrap;html=1;fillColor=#00CCCC;" vertex="1" parent="1">
          <mxGeometry x="2980" y="320" width="60" height="40" as="geometry" />
        </mxCell>
        <mxCell id="MwSIgb_RVXlyAXQ-AR61-598" value="5" style="rounded=0;whiteSpace=wrap;html=1;fillColor=#CC0000;" vertex="1" parent="1">
          <mxGeometry x="2980" y="360" width="60" height="40" as="geometry" />
        </mxCell>
        <mxCell id="MwSIgb_RVXlyAXQ-AR61-599" value="5" style="rounded=0;whiteSpace=wrap;html=1;fillColor=#B3B3B3;" vertex="1" parent="1">
          <mxGeometry x="2980" y="400" width="60" height="40" as="geometry" />
        </mxCell>
        <mxCell id="MwSIgb_RVXlyAXQ-AR61-600" value="6" style="rounded=0;whiteSpace=wrap;html=1;fillColor=#97D077;" vertex="1" parent="1">
          <mxGeometry x="2980" y="440" width="60" height="40" as="geometry" />
        </mxCell>
        <mxCell id="MwSIgb_RVXlyAXQ-AR61-601" value="8" style="rounded=0;whiteSpace=wrap;html=1;fillColor=#00CCCC;" vertex="1" parent="1">
          <mxGeometry x="3220" y="320" width="60" height="40" as="geometry" />
        </mxCell>
        <mxCell id="MwSIgb_RVXlyAXQ-AR61-602" value="8" style="rounded=0;whiteSpace=wrap;html=1;fillColor=#CC0000;" vertex="1" parent="1">
          <mxGeometry x="3220" y="360" width="60" height="40" as="geometry" />
        </mxCell>
        <mxCell id="MwSIgb_RVXlyAXQ-AR61-603" value="8" style="rounded=0;whiteSpace=wrap;html=1;fillColor=#B3B3B3;" vertex="1" parent="1">
          <mxGeometry x="3220" y="400" width="60" height="40" as="geometry" />
        </mxCell>
        <mxCell id="MwSIgb_RVXlyAXQ-AR61-604" value="6" style="rounded=0;whiteSpace=wrap;html=1;fillColor=#97D077;" vertex="1" parent="1">
          <mxGeometry x="3220" y="440" width="60" height="40" as="geometry" />
        </mxCell>
        <mxCell id="MwSIgb_RVXlyAXQ-AR61-605" value="8" style="rounded=0;whiteSpace=wrap;html=1;fillColor=#00CCCC;" vertex="1" parent="1">
          <mxGeometry x="3460" y="320" width="60" height="40" as="geometry" />
        </mxCell>
        <mxCell id="MwSIgb_RVXlyAXQ-AR61-606" value="5" style="rounded=0;whiteSpace=wrap;html=1;fillColor=#CC0000;" vertex="1" parent="1">
          <mxGeometry x="3460" y="360" width="60" height="40" as="geometry" />
        </mxCell>
        <mxCell id="MwSIgb_RVXlyAXQ-AR61-607" value="8" style="rounded=0;whiteSpace=wrap;html=1;fillColor=#B3B3B3;" vertex="1" parent="1">
          <mxGeometry x="3460" y="400" width="60" height="40" as="geometry" />
        </mxCell>
        <mxCell id="MwSIgb_RVXlyAXQ-AR61-608" value="6" style="rounded=0;whiteSpace=wrap;html=1;fillColor=#97D077;" vertex="1" parent="1">
          <mxGeometry x="3460" y="440" width="60" height="40" as="geometry" />
        </mxCell>
        <mxCell id="MwSIgb_RVXlyAXQ-AR61-609" value="request" style="rounded=0;whiteSpace=wrap;html=1;fillColor=#FFFF99;" vertex="1" parent="1">
          <mxGeometry x="2080" y="120" width="120" height="40" as="geometry" />
        </mxCell>
        <mxCell id="MwSIgb_RVXlyAXQ-AR61-610" value="TO" style="rounded=0;whiteSpace=wrap;html=1;fillColor=#66B2FF;" vertex="1" parent="1">
          <mxGeometry x="2080" y="160" width="60" height="40" as="geometry" />
        </mxCell>
        <mxCell id="MwSIgb_RVXlyAXQ-AR61-611" value="From" style="rounded=0;whiteSpace=wrap;html=1;fillColor=#66B2FF;" vertex="1" parent="1">
          <mxGeometry x="2080" y="200" width="60" height="40" as="geometry" />
        </mxCell>
        <mxCell id="MwSIgb_RVXlyAXQ-AR61-612" value="Term" style="rounded=0;whiteSpace=wrap;html=1;fillColor=#66B2FF;" vertex="1" parent="1">
          <mxGeometry x="2080" y="240" width="60" height="40" as="geometry" />
        </mxCell>
        <mxCell id="MwSIgb_RVXlyAXQ-AR61-613" value="3" style="rounded=0;whiteSpace=wrap;html=1;fillColor=#97D077;" vertex="1" parent="1">
          <mxGeometry x="2140" y="160" width="60" height="40" as="geometry" />
        </mxCell>
        <mxCell id="MwSIgb_RVXlyAXQ-AR61-614" value="2" style="rounded=0;whiteSpace=wrap;html=1;fillColor=#97D077;" vertex="1" parent="1">
          <mxGeometry x="2140" y="200" width="60" height="40" as="geometry" />
        </mxCell>
        <mxCell id="MwSIgb_RVXlyAXQ-AR61-615" value="0" style="rounded=0;whiteSpace=wrap;html=1;fillColor=#97D077;" vertex="1" parent="1">
          <mxGeometry x="2140" y="240" width="60" height="40" as="geometry" />
        </mxCell>
        <mxCell id="MwSIgb_RVXlyAXQ-AR61-617" value="LogTerm" style="rounded=0;whiteSpace=wrap;html=1;fillColor=#66B2FF;" vertex="1" parent="1">
          <mxGeometry x="2080" y="280" width="60" height="40" as="geometry" />
        </mxCell>
        <mxCell id="MwSIgb_RVXlyAXQ-AR61-618" value="0" style="rounded=0;whiteSpace=wrap;html=1;fillColor=#97D077;" vertex="1" parent="1">
          <mxGeometry x="2140" y="280" width="60" height="40" as="geometry" />
        </mxCell>
        <mxCell id="MwSIgb_RVXlyAXQ-AR61-619" value="Index" style="rounded=0;whiteSpace=wrap;html=1;fillColor=#66B2FF;" vertex="1" parent="1">
          <mxGeometry x="2080" y="320" width="60" height="40" as="geometry" />
        </mxCell>
        <mxCell id="MwSIgb_RVXlyAXQ-AR61-620" value="0" style="rounded=0;whiteSpace=wrap;html=1;fillColor=#97D077;" vertex="1" parent="1">
          <mxGeometry x="2140" y="320" width="60" height="40" as="geometry" />
        </mxCell>
        <mxCell id="MwSIgb_RVXlyAXQ-AR61-621" value="en" style="rounded=0;whiteSpace=wrap;html=1;fillColor=#66B2FF;" vertex="1" parent="1">
          <mxGeometry x="2080" y="360" width="60" height="40" as="geometry" />
        </mxCell>
        <mxCell id="MwSIgb_RVXlyAXQ-AR61-622" value="0" style="rounded=0;whiteSpace=wrap;html=1;fillColor=#97D077;" vertex="1" parent="1">
          <mxGeometry x="2140" y="360" width="60" height="40" as="geometry" />
        </mxCell>
        <mxCell id="MwSIgb_RVXlyAXQ-AR61-625" value="count" style="rounded=0;whiteSpace=wrap;html=1;fillColor=#66B2FF;" vertex="1" parent="1">
          <mxGeometry x="2920" y="480" width="60" height="40" as="geometry" />
        </mxCell>
        <mxCell id="MwSIgb_RVXlyAXQ-AR61-626" value="5" style="rounded=0;whiteSpace=wrap;html=1;fillColor=#97D077;" vertex="1" parent="1">
          <mxGeometry x="2980" y="480" width="60" height="40" as="geometry" />
        </mxCell>
        <mxCell id="MwSIgb_RVXlyAXQ-AR61-628" value="0" style="rounded=0;whiteSpace=wrap;html=1;fillColor=#97D077;" vertex="1" parent="1">
          <mxGeometry x="2872" y="-170" width="20" height="40" as="geometry" />
        </mxCell>
        <mxCell id="MwSIgb_RVXlyAXQ-AR61-631" value="commit" style="rounded=0;whiteSpace=wrap;html=1;fillColor=#66B2FF;" vertex="1" parent="1">
          <mxGeometry x="2080" y="400" width="60" height="40" as="geometry" />
        </mxCell>
        <mxCell id="MwSIgb_RVXlyAXQ-AR61-632" value="8" style="rounded=0;whiteSpace=wrap;html=1;fillColor=#97D077;" vertex="1" parent="1">
          <mxGeometry x="2140" y="400" width="60" height="40" as="geometry" />
        </mxCell>
      </root>
    </mxGraphModel>
  </diagram>
</mxfile>
